<svg width="150" height="150" viewBox="0 0 150 150" fill="none" xmlns="http://www.w3.org/2000/svg">
<path d="M111.64 12.8063C108.447 11.3107 104.895 10.7511 101.396 11.1925C97.8981 11.6339 94.5966 13.0582 91.875 15.3001C90.3494 12.1217 87.9567 9.43903 84.9728 7.56138C81.9888 5.68374 78.535 4.6875 75.0094 4.6875C71.4838 4.6875 68.03 5.68374 65.046 7.56138C62.062 9.43903 59.6693 12.1217 58.1438 15.3001C54.8559 12.6138 50.7536 11.1229 46.5082 11.0713C42.2627 11.0198 38.1255 12.4107 34.7733 15.0164C31.4212 17.6221 29.0527 21.2883 28.0553 25.4153C27.0579 29.5422 27.4907 33.8855 29.2828 37.7344C32.4137 43.8778 37.7152 48.6389 44.1586 51.0938C46.1164 51.8286 48.185 52.2248 50.2758 52.2657L51.6352 57.8415C51.7173 58.1785 51.8733 58.4931 52.0918 58.7625C52.3103 59.0319 52.5859 59.2495 52.8987 59.3995C53.2115 59.5495 53.5537 59.6282 53.9006 59.6299C54.2475 59.6317 54.5904 59.5563 54.9047 59.4094L57.0281 58.418L71.3203 89.0626H39.8438C38.6006 89.0626 37.4083 89.5564 36.5292 90.4355C35.6501 91.3146 35.1563 92.5069 35.1563 93.7501V140.625C35.1563 141.868 35.6501 143.061 36.5292 143.94C37.4083 144.819 38.6006 145.313 39.8438 145.313H110.156C111.399 145.313 112.592 144.819 113.471 143.94C114.35 143.061 114.844 141.868 114.844 140.625V93.7501C114.844 92.5069 114.35 91.3146 113.471 90.4355C112.592 89.5564 111.399 89.0626 110.156 89.0626H78.6797L92.9766 58.411L95.1 59.4024C95.4148 59.5515 95.7589 59.6285 96.1072 59.6279C96.4555 59.6273 96.7993 59.549 97.1136 59.3988C97.4278 59.2487 97.7047 59.0303 97.924 58.7597C98.1433 58.4891 98.2995 58.173 98.3813 57.8344L99.7406 52.261C101.831 52.2186 103.9 51.8224 105.858 51.0891C112.295 48.6315 117.59 43.8727 120.72 37.7344C122.807 33.2227 123.023 28.0683 121.322 23.3975C119.62 18.7266 116.14 14.9189 111.64 12.8063ZM75 9.37507C78.7285 9.37879 82.3032 10.8616 84.9396 13.498C87.576 16.1344 89.0588 19.7091 89.0625 23.4376C89.0625 31.6243 82.2445 42.1876 75 42.1876C67.7555 42.1876 60.9375 31.6243 60.9375 23.4376C60.9412 19.7091 62.424 16.1344 65.0604 13.498C67.6968 10.8616 71.2715 9.37879 75 9.37507ZM76.8305 49.2188H73.1695L73.657 46.7719C74.5471 46.9094 75.4529 46.9094 76.343 46.7719L76.8305 49.2188ZM33.5344 35.761C31.9665 32.3759 31.8026 28.5078 33.0784 25.0022C34.3543 21.4966 36.9661 18.6387 40.343 17.0532C43.0338 15.7956 46.0558 15.4301 48.9689 16.0097C51.882 16.5894 54.5338 18.084 56.5383 20.2759C56.353 21.3197 56.2565 22.3774 56.25 23.4376C56.3655 28.2617 57.7765 32.9659 60.3352 37.0571C59.9068 40.1957 58.4918 43.1168 56.2945 45.3985C55.6699 45.9629 54.9655 46.432 54.2039 46.7907C51.4845 47.8556 48.4565 47.8152 45.7664 46.6782C40.4933 44.654 36.1427 40.771 33.5344 35.761ZM54.9258 51.5391C55.361 51.3934 55.7875 51.2228 56.2031 51.0282C56.6039 50.8384 56.9742 50.604 57.3492 50.3813L58.8305 52.3969L55.5141 53.9462L54.9258 51.5391ZM64.3008 51.9259L60.9 47.2923C62.2303 45.6151 63.2661 43.7241 63.9633 41.7001C65.461 43.2429 67.2122 44.5176 69.1406 45.4688L68.0203 51.0938C67.9509 51.434 67.9579 51.7854 68.0408 52.1225C68.1238 52.4596 68.2806 52.7741 68.4999 53.0433C68.7193 53.3124 68.9957 53.5294 69.3091 53.6787C69.6226 53.8279 69.9653 53.9057 70.3125 53.9063H72.6563V80.8337L61.275 56.4282L63.4008 55.4368C63.7158 55.2905 63.9943 55.0761 64.2163 54.809C64.4382 54.5419 64.598 54.2288 64.6842 53.8923C64.7703 53.5559 64.7806 53.2045 64.7143 52.8636C64.648 52.5227 64.5067 52.2008 64.3008 51.9212V51.9259ZM110.156 133.594H39.8438V131.25H110.156V133.594ZM39.8438 140.625V138.281H110.156V140.625H39.8438ZM110.156 105.469V126.563H39.8438V93.7501H110.156V105.469ZM77.3438 80.8337V53.9063H79.6875C80.0351 53.9064 80.3783 53.8292 80.6924 53.6802C81.0064 53.5312 81.2834 53.3143 81.5033 53.0451C81.7231 52.7759 81.8804 52.4611 81.9636 52.1236C82.0468 51.7861 82.0539 51.4344 81.9844 51.0938L80.8594 45.4688C82.7867 44.5151 84.5362 43.238 86.032 41.693C86.7301 43.7171 87.7667 45.6081 89.0977 47.2852L85.6945 51.9188C85.4886 52.1985 85.3473 52.5204 85.281 52.8613C85.2147 53.2022 85.225 53.5535 85.3112 53.89C85.3973 54.2264 85.5571 54.5395 85.7791 54.8066C86.001 55.0737 86.2795 55.2882 86.5945 55.4344L88.7203 56.4259L77.3438 80.8337ZM91.1719 52.3969L92.6531 50.379C93.0328 50.6134 93.4078 50.8477 93.825 51.0376C94.2361 51.2278 94.657 51.3961 95.0859 51.5415L94.4977 53.9462L91.1719 52.3969ZM116.47 35.7563C113.862 40.7646 109.514 44.6472 104.243 46.6735C101.557 47.8074 98.5349 47.8511 95.8172 46.7954C95.0481 46.434 94.3372 45.96 93.7078 45.3891C91.5069 43.1072 90.0893 40.1842 89.6602 37.043C92.2181 32.9563 93.6306 28.2573 93.75 23.4376C93.7435 22.3774 93.647 21.3197 93.4617 20.2759C95.4659 18.0837 98.1179 16.5889 101.031 16.0092C103.944 15.4295 106.966 15.7953 109.657 17.0532C113.034 18.6387 115.646 21.4965 116.922 25.002C118.198 28.5074 118.035 32.3755 116.468 35.761L116.47 35.7563Z" fill="#38A5DD"/>
<path d="M75 121.875C77.3177 121.875 79.5834 121.188 81.5106 119.9C83.4377 118.612 84.9397 116.782 85.8267 114.641C86.7137 112.5 86.9457 110.143 86.4936 107.87C86.0414 105.597 84.9253 103.509 83.2864 101.87C81.6475 100.231 79.5594 99.1148 77.2862 98.6627C75.013 98.2105 72.6567 98.4426 70.5154 99.3295C68.3741 100.217 66.5439 101.719 65.2562 103.646C63.9685 105.573 63.2813 107.839 63.2812 110.156C63.285 113.263 64.5208 116.242 66.7177 118.439C68.9146 120.635 71.8931 121.871 75 121.875ZM75 103.125C76.3906 103.125 77.7501 103.537 78.9064 104.31C80.0626 105.083 80.9638 106.181 81.496 107.466C82.0282 108.75 82.1674 110.164 81.8961 111.528C81.6248 112.892 80.9552 114.145 79.9718 115.128C78.9885 116.111 77.7357 116.781 76.3717 117.052C75.0078 117.324 73.5941 117.184 72.3093 116.652C71.0245 116.12 69.9263 115.219 69.1537 114.063C68.3811 112.906 67.9688 111.547 67.9688 110.156C67.9688 108.291 68.7095 106.503 70.0282 105.184C71.3468 103.866 73.1352 103.125 75 103.125Z" fill="#38A5DD"/>
<path d="M46.875 121.875H53.9062V117.188H49.2188V112.5H44.5312V119.531C44.5312 120.153 44.7782 120.749 45.2177 121.189C45.6573 121.628 46.2534 121.875 46.875 121.875Z" fill="#38A5DD"/>
<path d="M105.469 119.531V112.5H100.781V117.188H96.0938V121.875H103.125C103.747 121.875 104.343 121.628 104.782 121.189C105.222 120.749 105.469 120.153 105.469 119.531Z" fill="#38A5DD"/>
<path d="M49.2188 103.125H53.9062V98.4375H46.875C46.2534 98.4375 45.6573 98.6844 45.2177 99.124C44.7782 99.5635 44.5312 100.16 44.5312 100.781V107.812H49.2188V103.125Z" fill="#38A5DD"/>
<path d="M100.781 107.812H105.469V100.781C105.469 100.16 105.222 99.5635 104.782 99.124C104.343 98.6844 103.747 98.4375 103.125 98.4375H96.0938V103.125H100.781V107.812Z" fill="#38A5DD"/>
</svg>
