<svg width="150" height="150" viewBox="0 0 150 150" fill="none" xmlns="http://www.w3.org/2000/svg">
<path d="M134.663 23.243C130.963 19.5431 126.57 16.6081 121.736 14.6057C116.902 12.6033 111.721 11.5726 106.488 11.5726C101.256 11.5726 96.0746 12.6033 91.2405 14.6057C86.4063 16.6081 82.0139 19.5431 78.3141 23.243L75 26.5571L71.686 23.243C67.9906 19.5231 63.5974 16.5692 58.7581 14.5505C53.9189 12.5319 48.7288 11.4883 43.4854 11.4795C38.242 11.4708 33.0484 12.4971 28.2024 14.4996C23.3565 16.502 18.9534 19.4413 15.2457 23.1489C11.538 26.8564 8.5985 31.2594 6.59583 36.1053C4.59315 40.9511 3.56666 46.1447 3.57519 51.3881C3.58372 56.6315 4.62711 61.8216 6.64554 66.661C8.66397 71.5003 11.6177 75.8937 15.3375 79.5891L73.343 137.595C73.7825 138.034 74.3785 138.281 75 138.281C75.6215 138.281 76.2175 138.034 76.657 137.595L134.663 79.5891C142.134 72.117 146.332 61.9829 146.332 51.4161C146.332 40.8492 142.134 30.7151 134.663 23.243ZM65.625 49.2188H65.2242C64.9161 49.2191 64.6109 49.1585 64.3262 49.0407C64.0414 48.9229 63.7827 48.75 63.5649 48.5321L60.2508 45.218C59.8113 44.7787 59.2152 44.5318 58.5938 44.5318C57.9723 44.5318 57.3762 44.7787 56.9367 45.218L54.9938 47.161C53.6722 48.4745 51.886 49.2139 50.0227 49.2188H46.875V46.8751C46.875 44.3887 47.8627 42.0041 49.6209 40.246C51.379 38.4878 53.7636 37.5001 56.25 37.5001C58.7364 37.5001 61.121 38.4878 62.8791 40.246C64.6373 42.0041 65.625 44.3887 65.625 46.8751V49.2188ZM50.0227 53.9063C51.562 53.9107 53.0868 53.6096 54.509 53.0207C55.9311 52.4317 57.2223 51.5665 58.3078 50.4751L58.5938 50.1891L60.2508 51.8462C61.0942 52.6809 62.1376 53.2853 63.2813 53.6016V56.2501C63.2813 58.1149 62.5405 59.9033 61.2219 61.2219C59.9032 62.5405 58.1148 63.2813 56.25 63.2813C54.3852 63.2813 52.5968 62.5405 51.2782 61.2219C49.9596 59.9033 49.2188 58.1149 49.2188 56.2501V53.9063H50.0227ZM56.25 67.9688C57.0372 67.9696 57.8224 67.8911 58.5938 67.7344V69.3446L56.25 71.6884L53.9063 69.3446V67.7344C54.6777 67.8911 55.4629 67.9696 56.25 67.9688ZM50.6813 72.7454L53.9063 75.9704V84.3751H58.5938V75.9704L61.8188 72.7454C64.758 72.9621 67.5072 74.2803 69.5165 76.4365C71.5258 78.5927 72.6471 81.4278 72.6563 84.3751V93.7501H70.3125V82.0313H65.625V93.7501H46.875V82.0313H42.1875V93.7501H39.8438V84.3751C39.8529 81.4278 40.9742 78.5927 42.9835 76.4365C44.9928 74.2803 47.742 72.9621 50.6813 72.7454ZM75 132.624L40.8141 98.4376H109.186L75 132.624ZM106.582 70.1555C105.046 69.2545 103.368 68.6206 101.62 68.2805C101.072 67.5037 100.779 66.5758 100.781 65.6251C100.781 65.604 100.781 65.5805 100.781 65.5595C102.441 64.3188 103.743 62.6612 104.555 60.7548C104.844 60.8763 105.155 60.9385 105.469 60.9376C106.712 60.9376 107.904 61.4314 108.783 62.3105C109.662 63.1896 110.156 64.3819 110.156 65.6251C110.165 66.6741 109.815 67.6947 109.165 68.5183C108.515 69.3419 107.604 69.9194 106.582 70.1555ZM100.781 56.2501C100.782 57.4732 100.464 58.6754 99.8575 59.7379C99.2514 60.8004 98.3787 61.6864 97.3255 62.3083C96.2722 62.9303 95.075 63.2668 93.8519 63.2845C92.6289 63.3023 91.4224 63.0007 90.3516 62.4095C90.268 62.3434 90.1794 62.2839 90.0867 62.2313C89.6138 61.9609 89.1788 61.6292 88.793 61.2446C88.006 60.457 87.4186 59.4927 87.0797 58.4321C86.8345 57.731 86.7124 56.9928 86.7188 56.2501V53.9063H87.5227C89.0619 53.9107 90.5868 53.6096 92.009 53.0207C93.4311 52.4317 94.7223 51.5665 95.8078 50.4751L96.0938 50.1891L97.7508 51.8462C98.5916 52.6919 99.6348 53.3083 100.781 53.6368V56.2501ZM91.1719 67.6548C92.8719 68.0703 94.6469 68.0703 96.3469 67.6548C96.6377 68.9299 97.197 70.1284 97.9875 71.1704C96.7832 72.1252 95.2915 72.6447 93.7547 72.6447C92.2179 72.6447 90.7262 72.1252 89.5219 71.1704C90.3152 70.1289 90.8777 68.9305 91.1719 67.6548ZM103.125 49.2188H102.724C102.416 49.2191 102.111 49.1585 101.826 49.0407C101.541 48.9229 101.283 48.75 101.065 48.5321L97.7508 45.218C97.3113 44.7787 96.7152 44.5318 96.0938 44.5318C95.4723 44.5318 94.8762 44.7787 94.4367 45.218L92.4938 47.161C91.1722 48.4745 89.386 49.2139 87.5227 49.2188H84.375V46.8751C84.375 44.3887 85.3627 42.0041 87.1209 40.246C88.879 38.4878 91.2636 37.5001 93.75 37.5001C96.2364 37.5001 98.621 38.4878 100.379 40.246C102.137 42.0041 103.125 44.3887 103.125 46.8751V49.2188ZM82.9547 60.7454C83.5351 62.1612 84.3861 63.4501 85.4602 64.5399C85.8511 64.8998 86.2687 65.2297 86.7094 65.5266C86.7094 65.5595 86.7094 65.5923 86.7094 65.6251C86.7117 66.5758 86.4185 67.5037 85.8703 68.2805C84.1221 68.6197 82.4442 69.2537 80.9086 70.1555C79.8882 69.9176 78.9792 69.3393 78.3312 68.5158C77.6833 67.6924 77.335 66.6728 77.3438 65.6251C77.3438 64.3819 77.8376 63.1896 78.7167 62.3105C79.5958 61.4314 80.7881 60.9376 82.0313 60.9376C82.3489 60.9368 82.6631 60.8714 82.9547 60.7454ZM82.6758 74.5595C83.4773 74.0305 84.3439 73.6074 85.2539 73.3009C86.2163 74.6344 87.4992 75.7039 88.9841 76.4105C90.4691 77.1172 92.1082 77.4382 93.75 77.3438C95.3927 77.439 97.0328 77.1186 98.519 76.4124C100.005 75.7062 101.289 74.6369 102.253 73.3032C103.164 73.6124 104.03 74.0386 104.831 74.5712C106.467 75.6306 107.811 77.0828 108.742 78.7954C109.672 80.5079 110.158 82.4262 110.156 84.3751V93.7501H107.813V82.0313H103.125V93.7501H84.375V82.0313H79.6875V93.7501H77.3438V84.3751C77.3416 82.4237 77.8284 80.503 78.7599 78.7883C79.6913 77.0736 81.0376 75.6197 82.6758 74.5595ZM131.348 76.2751L114.844 92.7798V84.3751C114.848 80.3298 113.35 76.4269 110.641 73.4227C111.937 72.5765 112.999 71.4198 113.733 70.0579C114.467 68.696 114.849 67.1721 114.844 65.6251C114.841 63.5472 114.149 61.5289 112.877 59.8861C111.604 58.2432 109.824 57.0684 107.813 56.5454V46.8751C107.813 43.1455 106.331 39.5686 103.694 36.9314C101.056 34.2942 97.4796 32.8126 93.75 32.8126C90.0204 32.8126 86.4435 34.2942 83.8063 36.9314C81.1691 39.5686 79.6875 43.1455 79.6875 46.8751V56.5454C77.6765 57.0684 75.8956 58.2432 74.6234 59.8861C73.3511 61.5289 72.6593 63.5472 72.6563 65.6251C72.6512 67.1727 73.0333 68.697 73.7676 70.0593C74.502 71.4216 75.5654 72.5786 76.8609 73.4251C76.1637 74.2058 75.5443 75.0528 75.0117 75.954C73.7579 73.863 72.0551 72.0768 70.0263 70.7246C67.9976 69.3724 65.6937 68.4879 63.2813 68.1352V65.5571C64.7306 64.4753 65.9086 63.0714 66.7221 61.4561C67.5356 59.8409 67.9624 58.0586 67.9688 56.2501V53.9063C68.5904 53.9063 69.1865 53.6594 69.626 53.2199C70.0656 52.7803 70.3125 52.1842 70.3125 51.5626V46.8751C70.3125 43.1455 68.8309 39.5686 66.1937 36.9314C63.5565 34.2942 59.9796 32.8126 56.25 32.8126C52.5204 32.8126 48.9436 34.2942 46.3063 36.9314C43.6691 39.5686 42.1875 43.1455 42.1875 46.8751V51.5626C42.1875 52.1842 42.4344 52.7803 42.874 53.2199C43.3135 53.6594 43.9097 53.9063 44.5313 53.9063V56.2501C44.5365 58.0598 44.9628 59.8435 45.7764 61.46C46.5899 63.0766 47.7685 64.4817 49.2188 65.5641V68.1423C45.3172 68.7108 41.7501 70.6633 39.1685 73.6433C36.5869 76.6234 35.1629 80.4323 35.1563 84.3751V92.7798L18.6516 76.2751C15.387 73.0104 12.7975 69.1347 11.0308 64.8692C9.26413 60.6038 8.35488 56.0321 8.35499 51.4153C8.35521 42.0911 12.0594 33.1489 18.6527 26.5559C25.2461 19.9629 34.1884 16.2591 43.5126 16.2594C52.8367 16.2596 61.7789 19.9638 68.3719 26.5571L73.343 31.5282C73.7825 31.9676 74.3785 32.2144 75 32.2144C75.6215 32.2144 76.2175 31.9676 76.657 31.5282L81.6281 26.5571C88.2211 19.9638 97.1633 16.2596 106.487 16.2594C115.812 16.2591 124.754 19.9629 131.347 26.5559C137.941 33.1489 141.645 42.0911 141.645 51.4153C141.645 60.7394 137.941 69.6817 131.348 76.2751Z" fill="#38A5DD"/>
<path d="M127.16 57.6354L131.459 59.5104C132.171 57.8735 132.711 56.1666 133.069 54.4175L128.477 53.48C128.183 54.9069 127.742 56.2995 127.16 57.6354Z" fill="#38A5DD"/>
<path d="M133.594 49.2188C133.586 42.3836 130.867 35.8307 126.034 30.9976C121.201 26.1644 114.648 23.4456 107.812 23.4375V28.125C113.405 28.1318 118.766 30.3564 122.72 34.3108C126.675 38.2651 128.899 43.6264 128.906 49.2188H133.594Z" fill="#38A5DD"/>
</svg>
