<svg width="150" height="150" viewBox="0 0 150 150" fill="none" xmlns="http://www.w3.org/2000/svg">
<path d="M63.2812 56.25C65.8701 56.25 67.9688 54.1513 67.9688 51.5625C67.9688 48.9737 65.8701 46.875 63.2812 46.875C60.6924 46.875 58.5938 48.9737 58.5938 51.5625C58.5938 54.1513 60.6924 56.25 63.2812 56.25Z" fill="#38A5DD"/>
<path d="M86.7188 56.25C89.3076 56.25 91.4062 54.1513 91.4062 51.5625C91.4062 48.9737 89.3076 46.875 86.7188 46.875C84.1299 46.875 82.0312 48.9737 82.0312 51.5625C82.0312 54.1513 84.1299 56.25 86.7188 56.25Z" fill="#38A5DD"/>
<path d="M70.0125 65.9016L66.7313 69.2391C68.9304 71.4277 71.9068 72.6564 75.0094 72.6564C78.112 72.6564 81.0884 71.4277 83.2875 69.2391L80.0063 65.9016C78.6616 67.1897 76.8715 67.9088 75.0094 67.9088C73.1473 67.9088 71.3572 67.1897 70.0125 65.9016Z" fill="#38A5DD"/>
<path d="M125.133 25.9688L75.9141 4.87501C75.6262 4.74751 75.3148 4.68164 75 4.68164C74.6852 4.68164 74.3738 4.74751 74.0859 4.87501L24.8672 25.9688C24.4444 26.1489 24.0839 26.4493 23.8305 26.8327C23.5771 27.216 23.442 27.6655 23.442 28.125C23.442 28.5846 23.5771 29.034 23.8305 29.4174C24.0839 29.8007 24.4444 30.1012 24.8672 30.2813L28.125 31.6875V37.9219C26.7592 38.4084 25.5764 39.3038 24.7377 40.4865C23.899 41.6691 23.445 43.0814 23.4375 44.5313C23.438 45.5286 23.654 46.514 24.0706 47.4202C24.4873 48.3263 25.0948 49.1317 25.8516 49.7813L23.6016 55.3828L27.9609 57.1172L30.1875 51.5391C30.2813 51.5391 30.375 51.5625 30.4688 51.5625C30.5625 51.5625 30.6562 51.5391 30.75 51.5391L32.9766 57.1172L37.3359 55.3828L35.0859 49.7813C35.8427 49.1317 36.4502 48.3263 36.8669 47.4202C37.2835 46.514 37.4995 45.5286 37.5 44.5313C37.4925 43.0814 37.0385 41.6691 36.1998 40.4865C35.3611 39.3038 34.1783 38.4084 32.8125 37.9219V33.6797L43.4063 38.2266C43.0547 40.3828 42.75 42.6328 42.5625 44.9531C40.8266 46.7158 39.8506 49.0886 39.8438 51.5625C39.8453 53.8615 40.7064 56.0768 42.2578 57.7735C42.3401 69.4401 44.8629 80.9605 49.6641 91.5938L40.5937 94.4297C36.2933 95.7553 32.5325 98.4273 29.8656 102.052C27.1987 105.677 25.7669 110.062 25.7812 114.563V142.969C25.7812 143.59 26.0282 144.187 26.4677 144.626C26.9073 145.066 27.5034 145.313 28.125 145.313H121.875C122.497 145.313 123.093 145.066 123.532 144.626C123.972 144.187 124.219 143.59 124.219 142.969V114.563C124.233 110.062 122.801 105.677 120.134 102.052C117.468 98.4273 113.707 95.7553 109.406 94.4297L100.336 91.5938C105.137 80.9605 107.66 69.4401 107.742 57.7735C109.294 56.0768 110.155 53.8615 110.156 51.5625C110.149 49.0886 109.173 46.7158 107.438 44.9531C107.25 42.6328 106.945 40.3828 106.594 38.2266L125.133 30.2813C125.556 30.1012 125.916 29.8007 126.17 29.4174C126.423 29.034 126.558 28.5846 126.558 28.125C126.558 27.6655 126.423 27.216 126.17 26.8327C125.916 26.4493 125.556 26.1489 125.133 25.9688ZM102.469 42.3516C101.912 42.2494 101.347 42.1945 100.781 42.1875V39.8438H102.117C102.234 40.6641 102.352 41.5078 102.469 42.3516ZM89.0625 96.3516C89.0722 96.7837 88.9582 97.2096 88.734 97.5792C88.5097 97.9487 88.1846 98.2465 87.7969 98.4375C87.4165 98.6428 86.9857 98.7363 86.5544 98.7073C86.1232 98.6782 85.7089 98.5279 85.3594 98.2735L79.5234 94.1016L84.5859 91.5703L89.0625 92.9766V96.3516ZM89.9297 102.609C91.0829 102.022 92.0505 101.126 92.7249 100.021C93.3993 98.9161 93.7542 97.6459 93.75 96.3516V94.4531L97.6641 95.6719L82.9453 119.016C82.8516 119.133 82.7578 119.273 82.6641 119.391L79.8281 108.094L82.7812 102.164C83.9371 102.969 85.3105 103.402 86.7188 103.406C87.837 103.398 88.9374 103.125 89.9297 102.609ZM75.8906 105.469H74.1094L71.0859 99.4219L75 96.6328L78.9141 99.4219L75.8906 105.469ZM78.6328 122.625C77.4817 123.105 76.247 123.352 75 123.352C73.753 123.352 72.5183 123.105 71.3672 122.625L74.4844 110.156H75.5156L78.6328 122.625ZM75 91.125L67.9688 87.6094V83.3672C70.2526 84.0361 72.6202 84.3755 75 84.375C77.3777 84.37 79.7436 84.0388 82.0312 83.3906V87.6094L75 91.125ZM60.0703 102.609C61.0626 103.125 62.163 103.398 63.2812 103.406C64.6895 103.402 66.0629 102.969 67.2188 102.164L70.1719 108.094L67.3359 119.391C67.2656 119.25 67.1484 119.133 67.0781 119.016L52.3359 95.6719L56.25 94.4531V96.3516C56.2458 97.6459 56.6007 98.9161 57.2751 100.021C57.9495 101.126 58.9171 102.022 60.0703 102.609ZM64.6406 98.2735C64.2911 98.5279 63.8768 98.6782 63.4456 98.7073C63.0143 98.7363 62.5835 98.6428 62.2031 98.4375C61.8154 98.2465 61.4903 97.9487 61.266 97.5792C61.0418 97.2096 60.9278 96.7837 60.9375 96.3516V92.9766L65.4141 91.5703L70.4766 94.1016L64.6406 98.2735ZM75 79.6875C70.3003 79.678 65.7381 78.1006 62.0361 75.2053C58.3341 72.3099 55.704 68.2621 54.5625 63.7031C56.4511 64.9592 58.6693 65.628 60.9375 65.625H65.625C67.4504 65.618 69.2489 65.184 70.8767 64.3579C72.5046 63.5318 73.9166 62.3364 75 60.8672C76.0834 62.3364 77.4954 63.5318 79.1233 64.3579C80.7511 65.184 82.5496 65.618 84.375 65.625H89.0625C91.3312 65.6319 93.5506 64.9629 95.4375 63.7031C94.5317 67.4161 92.6175 70.8065 89.9063 73.5C87.9539 75.4654 85.6312 77.0241 83.0726 78.0862C80.514 79.1483 77.7703 79.6925 75 79.6875ZM53.9062 53.9063V46.875H72.6562V53.9063C72.6507 55.7694 71.9081 57.5546 70.5907 58.872C69.2733 60.1894 67.4881 60.932 65.625 60.9375H60.9375C59.0744 60.932 57.2892 60.1894 55.9718 58.872C54.6544 57.5546 53.9118 55.7694 53.9062 53.9063ZM89.0625 60.9375H84.375C82.5119 60.932 80.7267 60.1894 79.4093 58.872C78.0919 57.5546 77.3493 55.7694 77.3438 53.9063V46.875H96.0938V53.9063C96.0882 55.7694 95.3456 57.5546 94.0282 58.872C92.7108 60.1894 90.9256 60.932 89.0625 60.9375ZM53.9062 42.1875V39.8438H96.0938V42.1875H53.9062ZM49.2188 35.1563V25.7813H100.781V35.1563H49.2188ZM75 9.58595L101.859 21.0938H48.1406L75 9.58595ZM47.8828 39.8438H49.2188V42.1875C48.6526 42.1945 48.0881 42.2494 47.5313 42.3516C47.6484 41.5078 47.7656 40.6641 47.8828 39.8438ZM30.4688 46.875C30.0052 46.875 29.5521 46.7376 29.1666 46.48C28.7812 46.2225 28.4808 45.8564 28.3034 45.4282C28.126 44.9999 28.0796 44.5287 28.17 44.074C28.2605 43.6194 28.4837 43.2018 28.8115 42.874C29.1392 42.5462 29.5569 42.323 30.0115 42.2325C30.4662 42.1421 30.9374 42.1885 31.3657 42.3659C31.7939 42.5433 32.16 42.8437 32.4175 43.2291C32.675 43.6146 32.8125 44.0677 32.8125 44.5313C32.8125 45.1529 32.5656 45.749 32.126 46.1885C31.6865 46.6281 31.0904 46.875 30.4688 46.875ZM31.7344 28.125L44.7187 22.5703C44.5961 22.843 44.5322 23.1385 44.5312 23.4375V33.6094L31.7344 28.125ZM44.5312 51.5625C44.535 50.3205 45.03 49.1303 45.9083 48.252C46.7866 47.3738 47.9767 46.8787 49.2188 46.875V56.25C47.9784 56.2408 46.7914 55.744 45.9144 54.8669C45.0373 53.9898 44.5404 52.8029 44.5312 51.5625ZM47.0859 60.6797C47.7866 60.8361 48.501 60.9225 49.2188 60.9375H49.3359C49.7397 65.2673 51.2293 69.4253 53.667 73.0264C56.1046 76.6276 59.4114 79.5555 63.2812 81.5391V87.3281L54.2109 90.1641C49.8993 80.9074 47.477 70.8838 47.0859 60.6797ZM102.281 97.125L108.023 98.9063C111.366 99.9381 114.289 102.017 116.361 104.835C118.433 107.654 119.544 111.064 119.531 114.563V140.625H30.4688V114.563C30.4558 111.064 31.5672 107.654 33.6391 104.835C35.711 102.017 38.6338 99.9381 41.9766 98.9063L47.7188 97.125L63.0938 121.5C64.3678 123.504 66.127 125.153 68.2082 126.296C70.2895 127.439 72.6255 128.039 75 128.039C77.3745 128.039 79.7105 127.439 81.7918 126.296C83.873 125.153 85.6322 123.504 86.9063 121.5L102.281 97.125ZM95.7891 90.1641L86.7188 87.3281V81.5391C89.1223 80.3171 91.3206 78.7277 93.2344 76.8281C97.5057 72.572 100.137 66.9443 100.664 60.9375H100.781C101.499 60.9225 102.213 60.8361 102.914 60.6797C102.523 70.8838 100.101 80.9074 95.7891 90.1641ZM104.086 54.8672C103.654 55.3049 103.139 55.6524 102.572 55.8898C102.005 56.1272 101.396 56.2496 100.781 56.25V46.875C102.023 46.8787 103.213 47.3738 104.092 48.252C104.97 49.1303 105.465 50.3205 105.469 51.5625C105.468 52.1774 105.346 52.7862 105.109 53.3534C104.871 53.9207 104.524 54.4352 104.086 54.8672ZM105.469 33.6094V23.4375C105.468 23.1385 105.404 22.843 105.281 22.5703L118.266 28.125L105.469 33.6094Z" fill="#38A5DD"/>
</svg>
