<svg width="150" height="150" viewBox="0 0 150 150" fill="none" xmlns="http://www.w3.org/2000/svg">
<path d="M142.945 58.3361H142.922L79.5234 5.41426C78.2621 4.34752 76.6636 3.76221 75.0117 3.76221C73.3598 3.76221 71.7613 4.34752 70.5 5.41426L7.26562 58.4768C5.94734 59.5476 5.05017 61.05 4.73278 62.7185C4.41539 64.387 4.69821 66.1139 5.53125 67.5939C6.04856 68.4757 6.75338 69.233 7.59581 69.8122C8.43825 70.3914 9.3977 70.7783 10.4062 70.9455C10.7928 71.0182 11.1849 71.0574 11.5781 71.0627C13.2354 71.0611 14.8383 70.4714 16.1016 69.3986L18.75 67.1721V138.281C18.7556 140.145 19.4981 141.93 20.8155 143.247C22.133 144.565 23.9182 145.307 25.7812 145.313H124.219C126.082 145.307 127.867 144.565 129.184 143.247C130.502 141.93 131.244 140.145 131.25 138.281V66.8908L133.898 69.1174C135.328 70.3171 137.176 70.8997 139.035 70.7371C140.894 70.5744 142.613 69.6799 143.812 68.2502C145.012 66.8205 145.595 64.9728 145.432 63.1136C145.27 61.2543 144.375 59.5358 142.945 58.3361ZM44.5312 140.625H39.8437V121.875H44.5312V140.625ZM100.781 140.625H49.2187V121.875H100.781V140.625ZM110.156 140.625H105.469V121.875H110.156V140.625ZM110.156 117.188H39.8437V112.5H110.156V117.188ZM32.8125 107.813V103.125H117.187V107.813H32.8125ZM39.8906 98.4377V93.7502H46.875C47.4966 93.7502 48.0927 93.9971 48.5323 94.4367C48.9718 94.8762 49.2187 95.4724 49.2187 96.094V98.4377H39.8906ZM110.156 84.3752V86.719C110.156 87.3406 109.909 87.9367 109.47 88.3762C109.03 88.8158 108.434 89.0627 107.812 89.0627H79.6875C79.0659 89.0627 78.4697 88.8158 78.0302 88.3762C77.5907 87.9367 77.3437 87.3406 77.3437 86.719V84.3752H110.156ZM77.3437 79.6877V67.9689C77.3437 67.3473 77.5907 66.7512 78.0302 66.3117C78.4697 65.8721 79.0659 65.6252 79.6875 65.6252H107.812C108.434 65.6252 109.03 65.8721 109.47 66.3117C109.909 66.7512 110.156 67.3473 110.156 67.9689V79.6877H77.3437ZM97.7812 98.4377H89.7187L90.8906 93.7502H96.6094L97.7812 98.4377ZM126.562 138.281C126.562 138.903 126.316 139.499 125.876 139.939C125.436 140.378 124.84 140.625 124.219 140.625H114.844V112.5H119.531C120.153 112.5 120.749 112.253 121.189 111.814C121.628 111.374 121.875 110.778 121.875 110.156V100.781C121.875 100.16 121.628 99.5637 121.189 99.1242C120.749 98.6846 120.153 98.4377 119.531 98.4377H102.609L101.437 93.7502H107.812C109.676 93.7446 111.461 93.0021 112.778 91.6847C114.096 90.3672 114.838 88.582 114.844 86.719V67.9689C114.838 66.1059 114.096 64.3207 112.778 63.0033C111.461 61.6858 109.676 60.9433 107.812 60.9377H79.6875C77.8244 60.9433 76.0392 61.6858 74.7218 63.0033C73.4044 64.3207 72.6618 66.1059 72.6562 67.9689V86.719C72.6618 88.582 73.4044 90.3672 74.7218 91.6847C76.0392 93.0021 77.8244 93.7446 79.6875 93.7502H86.0625L84.8906 98.4377H53.9062V96.094C53.9007 94.2309 53.1581 92.4457 51.8407 91.1283C50.5233 89.8108 48.7381 89.0683 46.875 89.0627H39.8906V73.6174L43.5703 69.9611V72.8205C43.5672 73.1291 43.6258 73.4353 43.7425 73.721C43.8592 74.0068 44.0317 74.2664 44.25 74.4846L47.5547 77.7893C47.7709 78.0118 48.0296 78.1887 48.3155 78.3095C48.6013 78.4303 48.9084 78.4926 49.2187 78.4926C49.5291 78.4926 49.8362 78.4303 50.122 78.3095C50.4079 78.1887 50.6666 78.0118 50.8828 77.7893L61.7812 66.8908C62.2249 66.4499 62.4774 65.8522 62.4844 65.2268C62.4831 64.9167 62.4203 64.6099 62.2996 64.3243C62.1789 64.0386 62.0027 63.7798 61.7812 63.5627L58.4766 60.258C58.2595 60.0366 58.0006 59.8604 57.715 59.7397C57.4293 59.619 57.1226 59.5562 56.8125 59.5549H53.5078L50.8828 56.9299C50.4296 56.5117 49.8355 56.2795 49.2187 56.2795C48.602 56.2795 48.0079 56.5117 47.5547 56.9299L40.9219 63.5627C40.5695 63.9222 40.3444 64.387 40.2809 64.8864C40.2174 65.3857 40.3191 65.8921 40.5703 66.3283L35.8828 70.9924C35.6645 71.2106 35.492 71.4702 35.3753 71.7559C35.2586 72.0417 35.2 72.3478 35.2031 72.6564V91.1721C35.2031 91.2658 35.1562 91.3361 35.1562 91.4065V98.4377H30.4687C29.8471 98.4377 29.251 98.6846 28.8115 99.1242C28.3719 99.5637 28.125 100.16 28.125 100.781V110.156C28.125 110.778 28.3719 111.374 28.8115 111.814C29.251 112.253 29.8471 112.5 30.4687 112.5H35.1562V140.625H25.7812C25.1596 140.625 24.5635 140.378 24.124 139.939C23.6844 139.499 23.4375 138.903 23.4375 138.281V63.1877L75 19.4768L126.562 62.9299V138.281ZM47.5547 66.8908L45.9141 65.2268L49.2187 61.8986L50.8828 63.5627C51.0964 63.7806 51.3519 63.9531 51.6338 64.0699C51.9157 64.1867 52.2183 64.2454 52.5234 64.2424H55.8516L56.8125 65.2268L49.2187 72.8205L48.2578 71.8596V68.5314C48.2566 68.2248 48.1937 67.9216 48.0729 67.6397C47.9521 67.3579 47.7759 67.1032 47.5547 66.8908ZM140.203 65.2268C140.009 65.4639 139.769 65.66 139.499 65.8039C139.228 65.9477 138.931 66.0364 138.626 66.0647C138.321 66.0931 138.013 66.0605 137.721 65.969C137.428 65.8775 137.157 65.7287 136.922 65.5314L76.5 14.6252C76.0799 14.2625 75.5433 14.0629 74.9883 14.0629C74.4332 14.0629 73.8967 14.2625 73.4766 14.6252L13.0781 65.8127C12.8199 66.0343 12.5155 66.1956 12.1871 66.2848C11.8587 66.374 11.5146 66.3888 11.1797 66.3283C10.8384 66.27 10.5142 66.1367 10.2305 65.9382C9.94686 65.7396 9.71071 65.4806 9.53906 65.1799C9.28386 64.6559 9.21678 64.06 9.34909 63.4923C9.4814 62.9247 9.80503 62.4199 10.2656 62.0627L73.5 9.0002C73.9241 8.65504 74.4532 8.46488 75 8.46114C75.5476 8.46007 76.0783 8.65079 76.5 9.0002L139.922 61.9455C140.158 62.1413 140.352 62.3819 140.494 62.6535C140.636 62.925 140.722 63.2221 140.749 63.5273C140.775 63.8326 140.74 64.14 140.646 64.4318C140.553 64.7235 140.402 64.9937 140.203 65.2268Z" fill="#38A5DD"/>
</svg>
