<svg width="150" height="150" viewBox="0 0 150 150" fill="none" xmlns="http://www.w3.org/2000/svg">
<path d="M145.228 83.6531C144.333 81.3378 142.556 79.472 140.287 78.465C138.018 77.4579 135.443 77.3919 133.125 78.2812L121.875 82.5914V42.1875H126.563C126.938 42.1872 127.308 42.0967 127.641 41.9237C127.974 41.7507 128.261 41.5002 128.477 41.1934C128.693 40.8865 128.832 40.5322 128.883 40.1603C128.933 39.7884 128.894 39.4098 128.768 39.0562L117.049 6.24375C116.887 5.78864 116.588 5.39484 116.193 5.11626C115.798 4.83767 115.327 4.68792 114.844 4.6875H39.8437C39.3602 4.68743 38.8884 4.83696 38.4931 5.11558C38.0978 5.3942 37.7984 5.78827 37.6359 6.24375L25.9172 39.0562C25.791 39.41 25.7517 39.7888 25.8025 40.1609C25.8533 40.533 25.9928 40.8874 26.2092 41.1943C26.4256 41.5013 26.7126 41.7517 27.046 41.9245C27.3794 42.0974 27.7495 42.1875 28.125 42.1875H32.8125V86.7187C32.8125 87.3403 33.0594 87.9365 33.499 88.376C33.9385 88.8156 34.5346 89.0625 35.1562 89.0625H38.0648L35.6227 90.7664C35.2667 90.2572 34.723 89.9101 34.1112 89.8016C33.4995 89.693 32.8696 89.8318 32.3602 90.1875L16.9852 100.948C16.7317 101.124 16.5156 101.349 16.3492 101.609C16.1828 101.869 16.0695 102.159 16.0157 102.463C15.9619 102.767 15.9687 103.079 16.0358 103.38C16.1028 103.682 16.2287 103.967 16.4063 104.22L2.97656 113.63C2.72427 113.806 2.50922 114.031 2.3437 114.29C2.17818 114.55 2.06542 114.839 2.01188 115.143C1.95834 115.446 1.96506 115.757 2.03165 116.057C2.09825 116.358 2.22341 116.642 2.4 116.895L21.2203 143.773C21.5767 144.281 22.1204 144.628 22.732 144.736C22.8665 144.761 23.003 144.774 23.1398 144.773C23.621 144.772 24.0904 144.624 24.4852 144.349L37.9242 134.937C38.28 135.445 38.8228 135.791 39.4336 135.9C39.5688 135.925 39.7062 135.938 39.8437 135.937C40.3251 135.938 40.7948 135.789 41.1891 135.513L56.5406 124.755C57.0485 124.4 57.3946 123.857 57.5031 123.246C57.6117 122.636 57.4737 122.007 57.1195 121.498L55.7789 119.583H55.793C60.4859 115.969 66.4147 114.351 72.293 115.08L76.4859 115.737C81.7693 116.566 87.1774 116 92.175 114.096L139.83 95.7984C140.984 95.3602 142.039 94.698 142.936 93.8498C143.832 93.0017 144.551 91.9845 145.052 90.8569C145.554 89.7293 145.826 88.5137 145.855 87.2801C145.884 86.0465 145.669 84.8194 145.221 83.6695L145.228 83.6531ZM41.4844 9.375H113.203L123.248 37.5H31.4508L41.4844 9.375ZM37.5 42.1875H117.188V84.375H110.714C110.554 84.0773 110.376 83.7901 110.18 83.5148C109.457 82.516 108.544 81.6702 107.493 81.0266C106.442 80.3829 105.273 79.954 104.055 79.7648L103.587 79.6898H110.156C110.778 79.6898 111.374 79.4429 111.814 79.0034C112.253 78.5638 112.5 77.9677 112.5 77.3461V60.9375C112.5 58.4511 111.512 56.0665 109.754 54.3084C107.996 52.5502 105.611 51.5625 103.125 51.5625C100.639 51.5625 98.254 52.5502 96.4959 54.3084C94.7377 56.0665 93.75 58.4511 93.75 60.9375V77.3437C93.7549 77.621 93.8105 77.8951 93.9141 78.1523L89.0625 77.3836V58.5937C89.0625 57.9721 88.8156 57.376 88.376 56.9365C87.9365 56.4969 87.3404 56.25 86.7188 56.25H67.9687C67.3471 56.25 66.751 56.4969 66.3115 56.9365C65.8719 57.376 65.625 57.9721 65.625 58.5937V75.9492C64.0479 76.1718 62.4834 76.4753 60.9375 76.8586V60.9375C60.9375 58.4511 59.9498 56.0665 58.1916 54.3084C56.4335 52.5502 54.0489 51.5625 51.5625 51.5625C49.0761 51.5625 46.6915 52.5502 44.9334 54.3084C43.1752 56.0665 42.1875 58.4511 42.1875 60.9375V77.3437C42.1875 77.9653 42.4344 78.5615 42.874 79.001C43.3135 79.4406 43.9096 79.6875 44.5312 79.6875H52.8328C50.0227 81.0105 47.3349 82.5791 44.8008 84.375H37.5V42.1875ZM98.4375 75V60.9375C98.4375 59.6943 98.9314 58.502 99.8104 57.6229C100.69 56.7439 101.882 56.25 103.125 56.25C104.368 56.25 105.56 56.7439 106.44 57.6229C107.319 58.502 107.813 59.6943 107.813 60.9375V75H98.4375ZM84.375 76.6406L80.4281 76.0148C77.0838 75.4872 73.6933 75.3128 70.3125 75.4945V60.9375H84.375V76.6406ZM56.25 75H46.875V60.9375C46.875 59.6943 47.3689 58.502 48.2479 57.6229C49.127 56.7439 50.3193 56.25 51.5625 56.25C52.8057 56.25 53.998 56.7439 54.8771 57.6229C55.7561 58.502 56.25 59.6943 56.25 60.9375V75ZM23.7164 139.165L7.58438 116.126L19.1039 108.061L35.2336 131.098L23.7164 139.165ZM40.425 130.324L21.6023 103.437L33.1195 95.3766L51.9375 122.257L40.425 130.324ZM141.122 87.7641C140.997 88.579 140.658 89.3461 140.138 89.9863C139.619 90.6264 138.938 91.1166 138.166 91.4062L90.5016 109.702C86.2713 111.322 81.6906 111.807 77.2148 111.108L73.0266 110.454C65.9483 109.517 58.7867 111.418 53.1047 115.741L38.3109 94.6125L46.0453 89.2219C46.2914 89.0344 46.5609 88.8492 46.875 88.6383C50.4564 85.9639 54.4289 83.8579 58.6523 82.3945L58.9852 82.2844C61.9824 81.3043 65.0797 80.662 68.2195 80.3695C72.0373 79.9491 75.8942 80.0414 79.6875 80.6437L103.313 84.3937C103.927 84.4904 104.517 84.7084 105.046 85.0352C105.576 85.3619 106.035 85.7908 106.397 86.2969C106.684 86.679 106.897 87.1114 107.025 87.5719C107.075 87.7169 107.109 87.867 107.126 88.0195C107.138 88.0992 107.154 88.1789 107.173 88.2539C107.319 88.9026 107.302 89.5774 107.123 90.218C106.823 91.3498 106.109 92.3279 105.123 92.9599C104.137 93.5919 102.95 93.832 101.796 93.6328L76.4062 89.6062L75.6703 94.2375L101.067 98.2664C103.347 98.6317 105.682 98.149 107.63 96.9095C109.578 95.6701 111.005 93.7598 111.64 91.5398L134.81 82.6523C135.971 82.2067 137.261 82.2403 138.396 82.7457C139.532 83.2512 140.421 84.1871 140.866 85.3477C141.166 86.1157 141.255 86.9502 141.122 87.7641Z" fill="#38A5DD"/>
<path d="M42.7218 117.272L38.8819 119.96L41.5704 123.8L45.4103 121.112L42.7218 117.272Z" fill="#38A5DD"/>
<path d="M18.75 37.5H9.375V42.1875H18.75V37.5Z" fill="#38A5DD"/>
<path d="M20.0457 51.8097L10.671 56.4971L12.7673 60.6897L22.142 56.0024L20.0457 51.8097Z" fill="#38A5DD"/>
<path d="M12.7665 18.9978L10.6702 23.1904L20.0449 27.8778L22.1412 23.6851L12.7665 18.9978Z" fill="#38A5DD"/>
<path d="M145.312 37.5H135.938V42.1875H145.312V37.5Z" fill="#38A5DD"/>
<path d="M134.642 51.8098L132.545 56.0024L141.92 60.6898L144.016 56.4972L134.642 51.8098Z" fill="#38A5DD"/>
<path d="M141.921 18.9967L132.547 23.6841L134.643 27.8767L144.018 23.1894L141.921 18.9967Z" fill="#38A5DD"/>
</svg>
