<svg width="1000" height="1000" viewBox="0 0 1001 1000" xmlns="http://www.w3.org/2000/svg" xml:space="preserve" style="fill-rule:evenodd;clip-rule:evenodd;stroke-linejoin:round;stroke-miterlimit:2"><path d="M771.592 68.572c-208.745 0-269.796.215-281.663 1.2-42.838 3.561-69.494 10.308-98.535 24.771-22.38 11.116-40.031 24.002-57.451 42.065-31.724 32.941-50.952 73.468-57.912 121.641-3.384 23.387-4.368 28.156-4.568 147.613-.077 39.818 0 92.223 0 162.513 0 208.633.23 269.639 1.23 281.486 3.461 41.696 9.998 67.929 23.842 96.624 26.457 54.925 76.985 96.165 136.513 111.545 20.611 5.31 43.376 8.23 72.601 9.62 12.383.54 138.59.92 264.874.92 126.284 0 252.567-.15 264.637-.77 33.85-1.59 53.49-4.23 75.22-9.85 59.91-15.46 109.52-56.08 136.51-111.774 13.58-28.002 20.46-55.235 23.58-94.754.67-8.616.96-145.989.96-283.177 0-137.212-.31-274.332-.99-282.948-3.15-40.157-10.03-67.159-24.05-95.7-11.49-23.364-24.26-40.811-42.79-58.651-33.08-31.603-73.54-50.835-121.74-57.789-23.36-3.378-28.01-4.378-147.53-4.585H771.592z" style="fill:url(#a);fill-rule:nonzero" transform="translate(-271.429 -68.572)"/><path d="M771.592 68.572c-208.745 0-269.796.215-281.663 1.2-42.838 3.561-69.494 10.308-98.535 24.771-22.38 11.116-40.031 24.002-57.451 42.065-31.724 32.941-50.952 73.468-57.912 121.641-3.384 23.387-4.368 28.156-4.568 147.613-.077 39.818 0 92.223 0 162.513 0 208.633.23 269.639 1.23 281.486 3.461 41.696 9.998 67.929 23.842 96.624 26.457 54.925 76.985 96.165 136.513 111.545 20.611 5.31 43.376 8.23 72.601 9.62 12.383.54 138.59.92 264.874.92 126.284 0 252.567-.15 264.637-.77 33.85-1.59 53.49-4.23 75.22-9.85 59.91-15.46 109.52-56.08 136.51-111.774 13.58-28.002 20.46-55.235 23.58-94.754.67-8.616.96-145.989.96-283.177 0-137.212-.31-274.332-.99-282.948-3.15-40.157-10.03-67.159-24.05-95.7-11.49-23.364-24.26-40.811-42.79-58.651-33.08-31.603-73.54-50.835-121.74-57.789-23.36-3.378-28.01-4.378-147.53-4.585H771.592z" style="fill:url(#b);fill-rule:nonzero" transform="translate(-271.429 -68.572)"/><path d="M771.592 68.572c-208.745 0-269.796.215-281.663 1.2-42.838 3.561-69.494 10.308-98.535 24.771-22.38 11.116-40.031 24.002-57.451 42.065-31.724 32.941-50.952 73.468-57.912 121.641-3.384 23.387-4.368 28.156-4.568 147.613-.077 39.818 0 92.223 0 162.513 0 208.633.23 269.639 1.23 281.486 3.461 41.696 9.998 67.929 23.842 96.624 26.457 54.925 76.985 96.165 136.513 111.545 20.611 5.31 43.376 8.23 72.601 9.62 12.383.54 138.59.92 264.874.92 126.284 0 252.567-.15 264.637-.77 33.85-1.59 53.49-4.23 75.22-9.85 59.91-15.46 109.52-56.08 136.51-111.774 13.58-28.002 20.46-55.235 23.58-94.754.67-8.616.96-145.989.96-283.177 0-137.212-.31-274.332-.99-282.948-3.15-40.157-10.03-67.159-24.05-95.7-11.49-23.364-24.26-40.811-42.79-58.651-33.08-31.603-73.54-50.835-121.74-57.789-23.36-3.378-28.01-4.378-147.53-4.585H771.592z" style="fill:url(#c);fill-rule:nonzero" transform="translate(-271.429 -68.572)"/><path d="M771.592 68.572c-208.745 0-269.796.215-281.663 1.2-42.838 3.561-69.494 10.308-98.535 24.771-22.38 11.116-40.031 24.002-57.451 42.065-31.724 32.941-50.952 73.468-57.912 121.641-3.384 23.387-4.368 28.156-4.568 147.613-.077 39.818 0 92.223 0 162.513 0 208.633.23 269.639 1.23 281.486 3.461 41.696 9.998 67.929 23.842 96.624 26.457 54.925 76.985 96.165 136.513 111.545 20.611 5.31 43.376 8.23 72.601 9.62 12.383.54 138.59.92 264.874.92 126.284 0 252.567-.15 264.637-.77 33.85-1.59 53.49-4.23 75.22-9.85 59.91-15.46 109.52-56.08 136.51-111.774 13.58-28.002 20.46-55.235 23.58-94.754.67-8.616.96-145.989.96-283.177 0-137.212-.31-274.332-.99-282.948-3.15-40.157-10.03-67.159-24.05-95.7-11.49-23.364-24.26-40.811-42.79-58.651-33.08-31.603-73.54-50.835-121.74-57.789-23.36-3.378-28.01-4.378-147.53-4.585H771.592z" style="fill:url(#d);fill-rule:nonzero" transform="translate(-271.429 -68.572)"/><path d="M500.202 128.402c-100.976 0-113.649.441-153.308 2.245-39.582 1.811-66.6 8.073-90.241 17.261-24.454 9.489-45.198 22.183-65.864 42.841-20.682 20.652-33.385 41.38-42.913 65.808-9.218 23.631-15.492 50.637-17.273 90.174-1.774 39.63-2.239 52.301-2.239 153.202 0 100.902.449 113.526 2.246 153.156 1.821 39.553 8.087 66.551 17.274 90.174 9.504 24.436 22.208 45.164 42.882 65.815 20.659 20.667 41.402 33.392 65.841 42.881 23.656 9.188 50.682 15.45 90.256 17.261 39.66 1.803 52.324 2.245 153.293 2.245 100.984 0 113.618-.441 153.278-2.245 39.582-1.811 66.631-8.073 90.287-17.261 24.446-9.489 45.159-22.214 65.818-42.881 20.681-20.651 33.385-41.379 42.912-65.807 9.14-23.631 15.415-50.637 17.274-90.174 1.781-39.63 2.246-52.262 2.246-153.164 0-100.902-.465-113.564-2.246-153.195-1.859-39.552-8.134-66.55-17.274-90.173-9.527-24.436-22.231-45.165-42.912-65.816-20.682-20.666-41.364-33.36-65.841-42.842-23.703-9.187-50.737-15.449-90.319-17.26-39.659-1.804-52.285-2.245-153.293-2.245h.116zm-33.354 66.953c9.9-.015 20.945 0 33.354 0 99.273 0 111.039.356 150.242 2.136 36.251 1.657 55.926 7.709 69.032 12.795 17.351 6.734 29.721 14.784 42.727 27.787 13.013 13.004 21.069 25.388 27.823 42.726 5.09 13.081 11.155 32.742 12.804 68.966 1.782 39.165 2.169 50.931 2.169 150.083s-.387 110.918-2.169 150.083c-1.657 36.225-7.714 55.885-12.804 68.966-6.738 17.338-14.81 29.684-27.823 42.679-13.013 13.004-25.369 21.054-42.727 27.788-13.091 5.109-32.781 11.146-69.032 12.802-39.195 1.78-50.969 2.167-150.242 2.167-99.28 0-111.046-.387-150.241-2.167-36.251-1.671-55.925-7.724-69.04-12.81-17.351-6.734-29.745-14.784-42.757-27.787-13.014-13.004-21.069-25.357-27.824-42.703-5.089-13.081-11.154-32.741-12.804-68.966-1.782-39.165-2.138-50.93-2.138-150.145 0-99.214.356-110.918 2.138-150.083 1.658-36.224 7.715-55.884 12.804-68.981 6.739-17.338 14.81-29.722 27.824-42.726 13.012-13.004 25.406-21.053 42.757-27.803 13.107-5.109 32.789-11.146 69.04-12.81 34.299-1.548 47.592-2.012 116.887-2.09v.093zm231.822 61.69c-24.632 0-44.617 19.946-44.617 44.568 0 24.614 19.985 44.584 44.617 44.584 24.632 0 44.617-19.97 44.617-44.584 0-24.614-19.985-44.584-44.617-44.584v.016zm-198.468 52.091c-105.446 0-190.938 85.429-190.938 190.797s85.492 190.758 190.938 190.758c105.447 0 190.908-85.39 190.908-190.758 0-105.368-85.469-190.797-190.915-190.797h.007zm0 66.953c68.444 0 123.936 55.444 123.936 123.844 0 68.393-55.492 123.844-123.936 123.844-68.451 0-123.935-55.451-123.935-123.844 0-68.4 55.484-123.844 123.935-123.844z" style="fill:#fff;fill-rule:nonzero"/><defs><radialGradient id="a" cx="0" cy="0" r="1" gradientUnits="userSpaceOnUse" gradientTransform="matrix(-614.955 173.432 -124.951 -443.045 1239.14 537.284)"><stop offset="0" style="stop-color:#ff005f;stop-opacity:1"/><stop offset="1" style="stop-color:#fc01d8;stop-opacity:1"/></radialGradient><radialGradient id="b" cx="0" cy="0" r="1" gradientUnits="userSpaceOnUse" gradientTransform="scale(846.893 798.219) rotate(-90 1.035 .4)"><stop offset="0" style="stop-color:#fc0;stop-opacity:1"/><stop offset=".12" style="stop-color:#fc0;stop-opacity:1"/><stop offset=".57" style="stop-color:#fe4a05;stop-opacity:1"/><stop offset=".69" style="stop-color:#ff0f3f;stop-opacity:1"/><stop offset="1" style="stop-color:#fe0657;stop-opacity:0"/></radialGradient><radialGradient id="c" cx="0" cy="0" r="1" gradientUnits="userSpaceOnUse" gradientTransform="matrix(165.682 -285.475 371.656 215.7 796.698 1054.47)"><stop offset="0" style="stop-color:#fc0;stop-opacity:1"/><stop offset="1" style="stop-color:#fc0;stop-opacity:0"/></radialGradient><radialGradient id="d" cx="0" cy="0" r="1" gradientUnits="userSpaceOnUse" gradientTransform="matrix(-608.204 171.26 -58.3332 -207.219 407.107 109.291)"><stop offset="0" style="stop-color:#780cff;stop-opacity:1"/><stop offset="1" style="stop-color:#820bff;stop-opacity:0"/></radialGradient></defs></svg>