<?xml version="1.0" encoding="UTF-8" standalone="no"?>
<svg width="1000" height="1000" viewBox="0 0 1001 1000" version="1.1" xmlns="http://www.w3.org/2000/svg" xmlns:xlink="http://www.w3.org/1999/xlink" xml:space="preserve" xmlns:serif="http://www.serif.com/" style="fill-rule:evenodd;clip-rule:evenodd;stroke-linejoin:round;stroke-miterlimit:2;">
    <g id="Layer-1" serif:id="Layer 1" transform="matrix(1,0,0,1,8.39895e-05,2.98428e-13)">
        <g transform="matrix(1,0,0,1,-271.429,-68.5716)">
            <path d="M771.592,68.572C562.847,68.572 501.796,68.787 489.929,69.772C447.091,73.333 420.435,80.08 391.394,94.543C369.014,105.659 351.363,118.545 333.943,136.608C302.219,169.549 282.991,210.076 276.031,258.249C272.647,281.636 271.663,286.405 271.463,405.862C271.386,445.68 271.463,498.085 271.463,568.375C271.463,777.008 271.693,838.014 272.693,849.861C276.154,891.557 282.691,917.79 296.535,946.485C322.992,1001.41 373.52,1042.65 433.048,1058.03C453.659,1063.34 476.424,1066.26 505.649,1067.65C518.032,1068.19 644.239,1068.57 770.523,1068.57C896.807,1068.57 1023.09,1068.42 1035.16,1067.8C1069.01,1066.21 1088.65,1063.57 1110.38,1057.95C1170.29,1042.49 1219.9,1001.87 1246.89,946.176C1260.47,918.174 1267.35,890.941 1270.47,851.422C1271.14,842.806 1271.43,705.433 1271.43,568.245C1271.43,431.033 1271.12,293.913 1270.44,285.297C1267.29,245.14 1260.41,218.138 1246.39,189.597C1234.9,166.233 1222.13,148.786 1203.6,130.946C1170.52,99.343 1130.06,80.111 1081.86,73.157C1058.5,69.779 1053.85,68.779 934.33,68.572L771.592,68.572Z" style="fill:url(#_Radial1);fill-rule:nonzero;"/>
        </g>
        <g transform="matrix(1,0,0,1,-271.429,-68.5716)">
            <path d="M771.592,68.572C562.847,68.572 501.796,68.787 489.929,69.772C447.091,73.333 420.435,80.08 391.394,94.543C369.014,105.659 351.363,118.545 333.943,136.608C302.219,169.549 282.991,210.076 276.031,258.249C272.647,281.636 271.663,286.405 271.463,405.862C271.386,445.68 271.463,498.085 271.463,568.375C271.463,777.008 271.693,838.014 272.693,849.861C276.154,891.557 282.691,917.79 296.535,946.485C322.992,1001.41 373.52,1042.65 433.048,1058.03C453.659,1063.34 476.424,1066.26 505.649,1067.65C518.032,1068.19 644.239,1068.57 770.523,1068.57C896.807,1068.57 1023.09,1068.42 1035.16,1067.8C1069.01,1066.21 1088.65,1063.57 1110.38,1057.95C1170.29,1042.49 1219.9,1001.87 1246.89,946.176C1260.47,918.174 1267.35,890.941 1270.47,851.422C1271.14,842.806 1271.43,705.433 1271.43,568.245C1271.43,431.033 1271.12,293.913 1270.44,285.297C1267.29,245.14 1260.41,218.138 1246.39,189.597C1234.9,166.233 1222.13,148.786 1203.6,130.946C1170.52,99.343 1130.06,80.111 1081.86,73.157C1058.5,69.779 1053.85,68.779 934.33,68.572L771.592,68.572Z" style="fill:url(#_Radial2);fill-rule:nonzero;"/>
        </g>
        <g transform="matrix(1,0,0,1,-271.429,-68.5716)">
            <path d="M771.592,68.572C562.847,68.572 501.796,68.787 489.929,69.772C447.091,73.333 420.435,80.08 391.394,94.543C369.014,105.659 351.363,118.545 333.943,136.608C302.219,169.549 282.991,210.076 276.031,258.249C272.647,281.636 271.663,286.405 271.463,405.862C271.386,445.68 271.463,498.085 271.463,568.375C271.463,777.008 271.693,838.014 272.693,849.861C276.154,891.557 282.691,917.79 296.535,946.485C322.992,1001.41 373.52,1042.65 433.048,1058.03C453.659,1063.34 476.424,1066.26 505.649,1067.65C518.032,1068.19 644.239,1068.57 770.523,1068.57C896.807,1068.57 1023.09,1068.42 1035.16,1067.8C1069.01,1066.21 1088.65,1063.57 1110.38,1057.95C1170.29,1042.49 1219.9,1001.87 1246.89,946.176C1260.47,918.174 1267.35,890.941 1270.47,851.422C1271.14,842.806 1271.43,705.433 1271.43,568.245C1271.43,431.033 1271.12,293.913 1270.44,285.297C1267.29,245.14 1260.41,218.138 1246.39,189.597C1234.9,166.233 1222.13,148.786 1203.6,130.946C1170.52,99.343 1130.06,80.111 1081.86,73.157C1058.5,69.779 1053.85,68.779 934.33,68.572L771.592,68.572Z" style="fill:url(#_Radial3);fill-rule:nonzero;"/>
        </g>
        <g transform="matrix(1,0,0,1,-271.429,-68.5716)">
            <path d="M771.592,68.572C562.847,68.572 501.796,68.787 489.929,69.772C447.091,73.333 420.435,80.08 391.394,94.543C369.014,105.659 351.363,118.545 333.943,136.608C302.219,169.549 282.991,210.076 276.031,258.249C272.647,281.636 271.663,286.405 271.463,405.862C271.386,445.68 271.463,498.085 271.463,568.375C271.463,777.008 271.693,838.014 272.693,849.861C276.154,891.557 282.691,917.79 296.535,946.485C322.992,1001.41 373.52,1042.65 433.048,1058.03C453.659,1063.34 476.424,1066.26 505.649,1067.65C518.032,1068.19 644.239,1068.57 770.523,1068.57C896.807,1068.57 1023.09,1068.42 1035.16,1067.8C1069.01,1066.21 1088.65,1063.57 1110.38,1057.95C1170.29,1042.49 1219.9,1001.87 1246.89,946.176C1260.47,918.174 1267.35,890.941 1270.47,851.422C1271.14,842.806 1271.43,705.433 1271.43,568.245C1271.43,431.033 1271.12,293.913 1270.44,285.297C1267.29,245.14 1260.41,218.138 1246.39,189.597C1234.9,166.233 1222.13,148.786 1203.6,130.946C1170.52,99.343 1130.06,80.111 1081.86,73.157C1058.5,69.779 1053.85,68.779 934.33,68.572L771.592,68.572Z" style="fill:url(#_Radial4);fill-rule:nonzero;"/>
        </g>
        <path d="M500.202,128.402C399.226,128.402 386.553,128.843 346.894,130.647C307.312,132.458 280.294,138.72 256.653,147.908C232.199,157.397 211.455,170.091 190.789,190.749C170.107,211.401 157.404,232.129 147.876,256.557C138.658,280.188 132.384,307.194 130.603,346.731C128.829,386.361 128.364,399.032 128.364,499.933C128.364,600.835 128.813,613.459 130.61,653.089C132.431,692.642 138.697,719.64 147.884,743.263C157.388,767.699 170.092,788.427 190.766,809.078C211.425,829.745 232.168,842.47 256.607,851.959C280.263,861.147 307.289,867.409 346.863,869.22C386.523,871.023 399.187,871.465 500.156,871.465C601.14,871.465 613.774,871.024 653.434,869.22C693.016,867.409 720.065,861.147 743.721,851.959C768.167,842.47 788.88,829.745 809.539,809.078C830.22,788.427 842.924,767.699 852.451,743.271C861.591,719.64 867.866,692.634 869.725,653.097C871.506,613.467 871.971,600.835 871.971,499.933C871.971,399.031 871.506,386.369 869.725,346.738C867.866,307.186 861.591,280.188 852.451,256.565C842.924,232.129 830.22,211.4 809.539,190.749C788.857,170.083 768.175,157.389 743.698,147.907C719.995,138.72 692.961,132.458 653.379,130.647C613.72,128.843 601.094,128.402 500.086,128.402L500.202,128.402ZM466.848,195.355C476.748,195.34 487.793,195.355 500.202,195.355C599.475,195.355 611.241,195.711 650.444,197.491C686.695,199.148 706.37,205.2 719.476,210.286C736.827,217.02 749.197,225.07 762.203,238.073C775.216,251.077 783.272,263.461 790.026,280.799C795.116,293.88 801.181,313.541 802.83,349.765C804.612,388.93 804.999,400.696 804.999,499.848C804.999,599 804.612,610.766 802.83,649.931C801.173,686.156 795.116,705.816 790.026,718.897C783.288,736.235 775.216,748.581 762.203,761.576C749.19,774.58 736.834,782.63 719.476,789.364C706.385,794.473 686.695,800.51 650.444,802.166C611.249,803.946 599.475,804.333 500.202,804.333C400.922,804.333 389.156,803.946 349.961,802.166C313.71,800.495 294.036,794.442 280.921,789.356C263.57,782.622 251.176,774.572 238.164,761.569C225.15,748.565 217.095,736.212 210.34,718.866C205.251,705.785 199.186,686.125 197.536,649.9C195.754,610.735 195.398,598.97 195.398,499.755C195.398,400.541 195.754,388.837 197.536,349.672C199.194,313.448 205.251,293.788 210.34,280.691C217.079,263.353 225.15,250.969 238.164,237.965C251.176,224.961 263.57,216.912 280.921,210.162C294.028,205.053 313.71,199.016 349.961,197.352C384.26,195.804 397.553,195.34 466.848,195.262L466.848,195.355ZM698.67,257.045C674.038,257.045 654.053,276.991 654.053,301.613C654.053,326.227 674.038,346.197 698.67,346.197C723.302,346.197 743.287,326.227 743.287,301.613C743.287,276.999 723.302,257.029 698.67,257.029L698.67,257.045ZM500.202,309.136C394.756,309.136 309.264,394.565 309.264,499.933C309.264,605.301 394.756,690.691 500.202,690.691C605.649,690.691 691.11,605.301 691.11,499.933C691.11,394.565 605.641,309.136 500.195,309.136L500.202,309.136ZM500.202,376.089C568.646,376.089 624.138,431.533 624.138,499.933C624.138,568.326 568.646,623.777 500.202,623.777C431.751,623.777 376.267,568.326 376.267,499.933C376.267,431.533 431.751,376.089 500.202,376.089Z" style="fill:white;fill-rule:nonzero;"/>
    </g>
    <defs>
        <radialGradient id="_Radial1" cx="0" cy="0" r="1" gradientUnits="userSpaceOnUse" gradientTransform="matrix(-614.955,173.432,-124.951,-443.045,1239.14,537.284)"><stop offset="0" style="stop-color:rgb(255,0,95);stop-opacity:1"/><stop offset="1" style="stop-color:rgb(252,1,216);stop-opacity:1"/></radialGradient>
        <radialGradient id="_Radial2" cx="0" cy="0" r="1" gradientUnits="userSpaceOnUse" gradientTransform="matrix(0,-798.219,846.893,0,537.046,1145.59)"><stop offset="0" style="stop-color:rgb(255,204,0);stop-opacity:1"/><stop offset="0.12" style="stop-color:rgb(255,204,0);stop-opacity:1"/><stop offset="0.57" style="stop-color:rgb(254,74,5);stop-opacity:1"/><stop offset="0.69" style="stop-color:rgb(255,15,63);stop-opacity:1"/><stop offset="1" style="stop-color:rgb(254,6,87);stop-opacity:0"/></radialGradient>
        <radialGradient id="_Radial3" cx="0" cy="0" r="1" gradientUnits="userSpaceOnUse" gradientTransform="matrix(165.682,-285.475,371.656,215.7,796.698,1054.47)"><stop offset="0" style="stop-color:rgb(255,204,0);stop-opacity:1"/><stop offset="1" style="stop-color:rgb(255,204,0);stop-opacity:0"/></radialGradient>
        <radialGradient id="_Radial4" cx="0" cy="0" r="1" gradientUnits="userSpaceOnUse" gradientTransform="matrix(-608.204,171.26,-58.3332,-207.219,407.107,109.291)"><stop offset="0" style="stop-color:rgb(120,12,255);stop-opacity:1"/><stop offset="1" style="stop-color:rgb(130,11,255);stop-opacity:0"/></radialGradient>
    </defs>
</svg>
