<svg width="150" height="150" viewBox="0 0 150 150" fill="none" xmlns="http://www.w3.org/2000/svg">
<path d="M120.595 122.262C116.33 118.625 111.645 115.509 106.641 112.983C108.691 106.831 110.191 100.509 111.122 94.0922L106.486 93.4078C105.616 99.3821 104.231 105.27 102.345 111.005C94.4168 107.662 85.9427 105.804 77.3437 105.523V9.56955C85.7227 10.8071 93.6656 18.6047 99.4219 31.4297L103.699 29.5078C100.829 22.6545 96.5413 16.4858 91.118 11.4071C100.629 13.8113 109.479 18.3171 117.019 24.593C115.355 25.9828 113.644 27.3188 111.863 28.5305L114.499 32.4094C116.59 30.9693 118.602 29.4187 120.527 27.7641C121.934 29.1164 123.293 30.5203 124.582 32.0039L128.123 28.9336C120.858 20.5567 111.714 14.0166 101.439 9.84721C91.1641 5.67778 80.0486 3.99719 69.0002 4.94261C57.9518 5.88803 47.2835 9.43267 37.8661 15.2872C28.4488 21.1417 20.5493 29.1402 14.8125 38.6297L18.8227 41.0578C21.7673 36.1847 25.3244 31.7092 29.407 27.7406C33.6781 31.3842 38.3701 34.5033 43.3828 37.0313C43.1484 37.7344 42.8953 38.4235 42.6797 39.1406L47.1516 40.5469C47.3156 40.0172 47.4984 39.5156 47.6719 39C55.595 42.3383 64.0632 44.1948 72.6562 44.4774V105.523C64.0529 105.804 55.5745 107.665 47.6437 111.012C46.7578 108.345 45.9586 105.534 45.2648 102.588L40.7039 103.662C41.4703 106.924 42.368 110.03 43.3734 112.978C38.3714 115.499 33.6889 118.61 29.4258 122.243C21.6984 114.799 15.9194 105.57 12.5977 95.3672L8.14453 96.8203C13.0159 111.735 22.7346 124.593 35.7548 133.348C48.775 142.103 64.3489 146.253 79.9993 145.138C95.6497 144.022 110.478 137.706 122.125 127.193C133.772 116.68 141.569 102.574 144.277 87.1196L139.657 86.318C137.292 100.023 130.614 112.615 120.595 122.262ZM100.744 115.416C95.093 129.713 86.6227 139.069 77.3437 140.428V110.21C85.3973 110.493 93.3298 112.258 100.744 115.416ZM32.925 24.586C40.4578 18.269 49.3295 13.7494 58.868 11.3696C52.6634 17.2728 47.9159 24.5374 45 32.5899C40.6924 30.3749 36.6428 27.6907 32.925 24.586ZM49.2633 34.5867C54.9961 20.1305 63.5602 10.9266 72.6562 9.56486V39.7992C64.6045 39.5143 56.6743 37.7473 49.2633 34.5867ZM72.6562 110.21V140.445C63.45 139.095 54.9492 129.834 49.2516 115.411C56.6672 112.254 64.6014 110.491 72.6562 110.21ZM32.9344 125.405C36.6566 122.302 40.71 119.619 45.0211 117.405C47.9873 125.474 52.7803 132.748 59.025 138.656C49.4387 136.267 40.5185 131.736 32.9344 125.405ZM105.012 117.422C109.319 119.635 113.368 122.319 117.084 125.423C109.532 131.716 100.659 136.227 91.125 138.621C97.3392 132.731 102.094 125.472 105.012 117.422Z" fill="#38A5DD"/>
<path d="M138.281 35.1562H86.7188C84.8539 35.1562 83.0655 35.897 81.7469 37.2157C80.4283 38.5343 79.6875 40.3227 79.6875 42.1875V75C79.6875 76.8648 80.4283 78.6532 81.7469 79.9718C83.0655 81.2905 84.8539 82.0312 86.7188 82.0312H93.75V93.75C93.75 94.1853 93.8712 94.6119 94.1 94.9822C94.3289 95.3524 94.6563 95.6517 95.0456 95.8463C95.4349 96.041 95.8707 96.1234 96.3042 96.0843C96.7377 96.0452 97.1518 95.8862 97.5 95.625L115.624 82.0312H138.281C140.146 82.0312 141.934 81.2905 143.253 79.9718C144.572 78.6532 145.312 76.8648 145.312 75V42.1875C145.312 40.3227 144.572 38.5343 143.253 37.2157C141.934 35.897 140.146 35.1562 138.281 35.1562ZM140.625 75C140.625 75.6216 140.378 76.2177 139.939 76.6573C139.499 77.0968 138.903 77.3438 138.281 77.3438H114.844C114.337 77.3438 113.843 77.5082 113.438 77.8125L98.4375 89.0625V79.6875C98.4375 79.0659 98.1906 78.4698 97.751 78.0302C97.3115 77.5907 96.7154 77.3438 96.0938 77.3438H86.7188C86.0971 77.3438 85.501 77.0968 85.0615 76.6573C84.6219 76.2177 84.375 75.6216 84.375 75V42.1875C84.375 41.5659 84.6219 40.9698 85.0615 40.5302C85.501 40.0907 86.0971 39.8438 86.7188 39.8438H138.281C138.903 39.8438 139.499 40.0907 139.939 40.5302C140.378 40.9698 140.625 41.5659 140.625 42.1875V75Z" fill="#38A5DD"/>
<path d="M34.3758 91.4062L52.5 105C52.8482 105.261 53.2623 105.42 53.6958 105.459C54.1293 105.498 54.5651 105.416 54.9544 105.221C55.3437 105.027 55.6711 104.727 55.9 104.357C56.1288 103.987 56.25 103.56 56.25 103.125V91.4062H63.2812C65.1461 91.4062 66.9345 90.6655 68.2531 89.3468C69.5717 88.0282 70.3125 86.2398 70.3125 84.375V51.5625C70.3125 49.6977 69.5717 47.9093 68.2531 46.5907C66.9345 45.272 65.1461 44.5313 63.2812 44.5312H11.7188C9.85395 44.5313 8.06552 45.272 6.74691 46.5907C5.42829 47.9093 4.6875 49.6977 4.6875 51.5625V84.375C4.6875 86.2398 5.42829 88.0282 6.74691 89.3468C8.06552 90.6655 9.85395 91.4062 11.7188 91.4062H34.3758ZM9.375 84.375V51.5625C9.375 50.9409 9.62193 50.3448 10.0615 49.9052C10.501 49.4657 11.0971 49.2188 11.7188 49.2188H63.2812C63.9029 49.2188 64.499 49.4657 64.9385 49.9052C65.3781 50.3448 65.625 50.9409 65.625 51.5625V84.375C65.625 84.9966 65.3781 85.5927 64.9385 86.0323C64.499 86.4718 63.9029 86.7188 63.2812 86.7188H53.9062C53.2846 86.7188 52.6885 86.9657 52.249 87.4052C51.8094 87.8448 51.5625 88.4409 51.5625 89.0625V98.4375L36.5625 87.1875C36.1568 86.8832 35.6634 86.7188 35.1562 86.7188H11.7188C11.0971 86.7188 10.501 86.4718 10.0615 86.0323C9.62193 85.5927 9.375 84.9966 9.375 84.375Z" fill="#38A5DD"/>
<path d="M39.8438 65.625H35.1562V70.3125H39.8438V65.625Z" fill="#38A5DD"/>
<path d="M49.2188 65.625H44.5312V70.3125H49.2188V65.625Z" fill="#38A5DD"/>
<path d="M30.4688 65.625H25.7812V70.3125H30.4688V65.625Z" fill="#38A5DD"/>
<path d="M131.25 49.2188H93.75V53.9062H131.25V49.2188Z" fill="#38A5DD"/>
<path d="M131.25 63.2812H93.75V67.9688H131.25V63.2812Z" fill="#38A5DD"/>
</svg>
