<svg width="150" height="150" viewBox="0 0 150 150" fill="none" xmlns="http://www.w3.org/2000/svg">
<path d="M58.5938 93.75H30.4688V98.4375H58.5938V93.75Z" fill="#38A5DD"/>
<path d="M58.5938 103.125H30.4688V107.812H58.5938V103.125Z" fill="#38A5DD"/>
<path d="M95.8477 54.9515L97.5375 51.5624H104.346L100.948 60.0679L105.302 61.8069L109.395 51.5624H117.188V46.8749H109.395L105.302 36.6304L100.948 38.3694L104.346 46.8749H97.5375L95.8477 43.4858L91.6523 45.5765L93.4711 49.2187L91.6523 52.8608L95.8477 54.9515Z" fill="#38A5DD"/>
<path d="M138.281 4.6875H121.875C120.633 4.69121 119.443 5.18626 118.565 6.06453C117.686 6.94281 117.191 8.13294 117.188 9.375C117.187 13.1046 115.706 16.6815 113.069 19.3187C110.431 21.9559 106.855 23.4375 103.125 23.4375C101.278 23.4452 99.4471 23.0843 97.7407 22.376C96.0344 21.6677 94.4865 20.6262 93.1875 19.3125C91.8738 18.0135 90.8323 16.4656 90.124 14.7593C89.4157 13.0529 89.0548 11.2225 89.0625 9.375C89.0588 8.13294 88.5637 6.94281 87.6855 6.06453C86.8072 5.18626 85.6171 4.69121 84.375 4.6875H67.9688C66.1057 4.69306 64.3205 5.43564 63.0031 6.75305C61.6856 8.07046 60.9431 9.85566 60.9375 11.7188V21.0938H16.4062C13.2982 21.0938 10.3175 22.3284 8.11984 24.5261C5.92215 26.7238 4.6875 29.7045 4.6875 32.8125V117.188C4.6875 120.296 5.92215 123.276 8.11984 125.474C10.3175 127.672 13.2982 128.906 16.4062 128.906H60.9375V138.281C60.9431 140.144 61.6856 141.93 63.0031 143.247C64.3205 144.564 66.1057 145.307 67.9688 145.312H84.375C85.6171 145.309 86.8072 144.814 87.6855 143.935C88.5637 143.057 89.0588 141.867 89.0625 140.625C89.0625 136.895 90.5441 133.319 93.1813 130.681C95.8185 128.044 99.3954 126.562 103.125 126.562C106.855 126.562 110.431 128.044 113.069 130.681C115.706 133.319 117.187 136.895 117.188 140.625C117.191 141.867 117.686 143.057 118.565 143.935C119.443 144.814 120.633 145.309 121.875 145.312H138.281C140.144 145.307 141.93 144.564 143.247 143.247C144.564 141.93 145.307 140.144 145.312 138.281V11.7188C145.307 9.85566 144.564 8.07046 143.247 6.75305C141.93 5.43564 140.144 4.69306 138.281 4.6875ZM16.4062 124.219C14.5432 124.213 12.758 123.471 11.4406 122.153C10.1231 120.836 9.38056 119.051 9.375 117.188V32.8125C9.38056 30.9494 10.1231 29.1642 11.4406 27.8468C12.758 26.5294 14.5432 25.7868 16.4062 25.7812H72.6562C74.5193 25.7868 76.3045 26.5294 77.6219 27.8468C78.9394 29.1642 79.6819 30.9494 79.6875 32.8125V117.188C79.6819 119.051 78.9394 120.836 77.6219 122.153C76.3045 123.471 74.5193 124.213 72.6562 124.219H16.4062ZM140.625 138.281C140.625 138.903 140.378 139.499 139.939 139.939C139.499 140.378 138.903 140.625 138.281 140.625H121.875C121.875 135.652 119.9 130.883 116.383 127.367C112.867 123.85 108.098 121.875 103.125 121.875C98.1522 121.875 93.3831 123.85 89.8668 127.367C86.3504 130.883 84.375 135.652 84.375 140.625H67.9688C67.3471 140.625 66.751 140.378 66.3115 139.939C65.8719 139.499 65.625 138.903 65.625 138.281V128.906H72.6562C75.7643 128.906 78.745 127.672 80.9427 125.474C83.1403 123.276 84.375 120.296 84.375 117.188V77.3438H140.625V138.281ZM140.625 72.6562H84.375V32.8125C84.375 29.7045 83.1403 26.7238 80.9427 24.5261C78.745 22.3284 75.7643 21.0938 72.6562 21.0938H65.625V11.7188C65.625 11.0971 65.8719 10.501 66.3115 10.0615C66.751 9.62193 67.3471 9.375 67.9688 9.375H84.375C84.375 14.3478 86.3504 19.1169 89.8668 22.6333C93.3831 26.1496 98.1522 28.125 103.125 28.125C108.098 28.125 112.867 26.1496 116.383 22.6333C119.9 19.1169 121.875 14.3478 121.875 9.375H138.281C138.903 9.375 139.499 9.62193 139.939 10.0615C140.378 10.501 140.625 11.0971 140.625 11.7188V72.6562Z" fill="#38A5DD"/>
<path d="M44.5313 42.1875C40.3593 42.1875 36.281 43.4246 32.8122 45.7424C29.3433 48.0602 26.6397 51.3546 25.0432 55.209C23.4466 59.0634 23.0289 63.3047 23.8428 67.3964C24.6567 71.4882 26.6657 75.2468 29.6157 78.1968C32.5657 81.1468 36.3243 83.1558 40.4161 83.9697C44.5078 84.7836 48.7491 84.3659 52.6035 82.7693C56.4579 81.1728 59.7523 78.4692 62.0701 75.0003C64.3879 71.5315 65.625 67.4532 65.625 63.2812C65.6163 57.6895 63.3912 52.3293 59.4372 48.3753C55.4832 44.4213 50.123 42.1962 44.5313 42.1875ZM57.9844 53.9062H52.9922C52.6307 52.0098 52.073 50.1561 51.3281 48.375C54.0009 49.5914 56.2992 51.5013 57.9844 53.9062ZM44.5313 46.875C45.4219 46.875 47.1094 49.3125 48.2109 53.9062H40.8516C41.9531 49.3125 43.6406 46.875 44.5313 46.875ZM28.8047 67.9688C27.8985 64.9094 27.8985 61.6531 28.8047 58.5938H35.3906C35.0781 61.7109 35.0781 64.8516 35.3906 67.9688H28.8047ZM31.0781 72.6562H36.0703C36.4318 74.5527 36.9895 76.4064 37.7344 78.1875C35.0616 76.9711 32.7633 75.0612 31.0781 72.6562ZM36.0703 53.9062H31.0781C32.7633 51.5013 35.0616 49.5914 37.7344 48.375C36.9895 50.1561 36.4318 52.0098 36.0703 53.9062ZM44.5313 79.6875C43.6406 79.6875 41.9531 77.25 40.8516 72.6562H48.2109C47.1094 77.25 45.4219 79.6875 44.5313 79.6875ZM48.9844 67.9688H40.0781C39.9375 66.5391 39.8438 64.9688 39.8438 63.2812C39.8438 61.5937 39.9375 60.0234 40.0781 58.5938H48.9844C49.125 60.0234 49.2188 61.5937 49.2188 63.2812C49.2188 64.9688 49.125 66.5391 48.9844 67.9688ZM51.3281 78.1875C52.073 76.4064 52.6307 74.5527 52.9922 72.6562H57.9844C56.2992 75.0612 54.0009 76.9711 51.3281 78.1875ZM53.6719 67.9688C53.9844 64.8516 53.9844 61.7109 53.6719 58.5938H60.2578C61.164 61.6531 61.164 64.9094 60.2578 67.9688H53.6719Z" fill="#38A5DD"/>
<path d="M114.844 86.7188H110.156V114.844H114.844V86.7188Z" fill="#38A5DD"/>
<path d="M105.469 86.7188H100.781V114.844H105.469V86.7188Z" fill="#38A5DD"/>
<path d="M96.0938 86.7188H91.4062V114.844H96.0938V86.7188Z" fill="#38A5DD"/>
</svg>
