<svg width="198" height="80" viewBox="0 0 198 80" fill="none" xmlns="http://www.w3.org/2000/svg">
<rect width="198" height="80" rx="16" fill="#06C755"/>
<path d="M89.1641 27.2266H85.4375V34H81.9102V16.7266H90.3828C91.5938 16.75 92.5234 16.8984 93.1719 17.1719C93.8281 17.4453 94.3828 17.8477 94.8359 18.3789C95.2109 18.8164 95.5078 19.3008 95.7266 19.832C95.9453 20.3633 96.0547 20.9688 96.0547 21.6484C96.0547 22.4688 95.8477 23.2773 95.4336 24.0742C95.0195 24.8633 94.3359 25.4219 93.3828 25.75C94.1797 26.0703 94.7422 26.5273 95.0703 27.1211C95.4062 27.707 95.5742 28.6055 95.5742 29.8164V30.9766C95.5742 31.7656 95.6055 32.3008 95.668 32.582C95.7617 33.0273 95.9805 33.3555 96.3242 33.5664V34H92.3516C92.2422 33.6172 92.1641 33.3086 92.1172 33.0742C92.0234 32.5898 91.9727 32.0938 91.9648 31.5859L91.9414 29.9805C91.9258 28.8789 91.7227 28.1445 91.332 27.7773C90.9492 27.4102 90.2266 27.2266 89.1641 27.2266ZM91.3555 24.0859C92.0742 23.7578 92.4336 23.1094 92.4336 22.1406C92.4336 21.0938 92.0859 20.3906 91.3906 20.0312C91 19.8281 90.4141 19.7266 89.6328 19.7266H85.4375V24.3672H89.5273C90.3398 24.3672 90.9492 24.2734 91.3555 24.0859ZM109.836 30.25C109.75 31.0078 109.355 31.7773 108.652 32.5586C107.559 33.8008 106.027 34.4219 104.059 34.4219C102.434 34.4219 101 33.8984 99.7578 32.8516C98.5156 31.8047 97.8945 30.1016 97.8945 27.7422C97.8945 25.5312 98.4531 23.8359 99.5703 22.6562C100.695 21.4766 102.152 20.8867 103.941 20.8867C105.004 20.8867 105.961 21.0859 106.812 21.4844C107.664 21.8828 108.367 22.5117 108.922 23.3711C109.422 24.1289 109.746 25.0078 109.895 26.0078C109.98 26.5938 110.016 27.4375 110 28.5391H101.258C101.305 29.8203 101.707 30.7188 102.465 31.2344C102.926 31.5547 103.48 31.7148 104.129 31.7148C104.816 31.7148 105.375 31.5195 105.805 31.1289C106.039 30.918 106.246 30.625 106.426 30.25H109.836ZM106.531 26.3359C106.477 25.4531 106.207 24.7852 105.723 24.332C105.246 23.8711 104.652 23.6406 103.941 23.6406C103.168 23.6406 102.566 23.8828 102.137 24.3672C101.715 24.8516 101.449 25.5078 101.34 26.3359H106.531ZM115.871 36.2383C116.23 36.543 116.836 36.6953 117.688 36.6953C118.891 36.6953 119.695 36.293 120.102 35.4883C120.367 34.9727 120.5 34.1055 120.5 32.8867V32.0664C120.18 32.6133 119.836 33.0234 119.469 33.2969C118.805 33.8047 117.941 34.0586 116.879 34.0586C115.238 34.0586 113.926 33.4844 112.941 32.3359C111.965 31.1797 111.477 29.6172 111.477 27.6484C111.477 25.75 111.949 24.1562 112.895 22.8672C113.84 21.5703 115.18 20.9219 116.914 20.9219C117.555 20.9219 118.113 21.0195 118.59 21.2148C119.402 21.5508 120.059 22.168 120.559 23.0664V21.2266H123.805V33.3438C123.805 34.9922 123.527 36.2344 122.973 37.0703C122.02 38.5078 120.191 39.2266 117.488 39.2266C115.855 39.2266 114.523 38.9062 113.492 38.2656C112.461 37.625 111.891 36.668 111.781 35.3945H115.414C115.508 35.7852 115.66 36.0664 115.871 36.2383ZM115.309 29.6406C115.762 30.7188 116.574 31.2578 117.746 31.2578C118.527 31.2578 119.188 30.9648 119.727 30.3789C120.266 29.7852 120.535 28.8438 120.535 27.5547C120.535 26.3438 120.277 25.4219 119.762 24.7891C119.254 24.1562 118.57 23.8398 117.711 23.8398C116.539 23.8398 115.73 24.3906 115.285 25.4922C115.051 26.0781 114.934 26.8008 114.934 27.6602C114.934 28.4023 115.059 29.0625 115.309 29.6406ZM130.367 21.2266V34H126.98V21.2266H130.367ZM130.367 16.6211V19.7031H126.98V16.6211H130.367ZM142.414 21.8125C143.414 22.4531 143.988 23.5547 144.137 25.1172H140.797C140.75 24.6875 140.629 24.3477 140.434 24.0977C140.066 23.6445 139.441 23.418 138.559 23.418C137.832 23.418 137.312 23.5312 137 23.7578C136.695 23.9844 136.543 24.25 136.543 24.5547C136.543 24.9375 136.707 25.2148 137.035 25.3867C137.363 25.5664 138.523 25.875 140.516 26.3125C141.844 26.625 142.84 27.0977 143.504 27.7305C144.16 28.3711 144.488 29.1719 144.488 30.1328C144.488 31.3984 144.016 32.4336 143.07 33.2383C142.133 34.0352 140.68 34.4336 138.711 34.4336C136.703 34.4336 135.219 34.0117 134.258 33.168C133.305 32.3164 132.828 31.2344 132.828 29.9219H136.215C136.285 30.5156 136.438 30.9375 136.672 31.1875C137.086 31.6328 137.852 31.8555 138.969 31.8555C139.625 31.8555 140.145 31.7578 140.527 31.5625C140.918 31.3672 141.113 31.0742 141.113 30.6836C141.113 30.3086 140.957 30.0234 140.645 29.8281C140.332 29.6328 139.172 29.2969 137.164 28.8203C135.719 28.4609 134.699 28.0117 134.105 27.4727C133.512 26.9414 133.215 26.1758 133.215 25.1758C133.215 23.9961 133.676 22.9844 134.598 22.1406C135.527 21.2891 136.832 20.8633 138.512 20.8633C140.105 20.8633 141.406 21.1797 142.414 21.8125ZM152.82 31.6211V34.1172L151.238 34.1758C149.66 34.2305 148.582 33.957 148.004 33.3555C147.629 32.9727 147.441 32.3828 147.441 31.5859V23.7227H145.66V21.3438H147.441V17.7812H150.746V21.3438H152.82V23.7227H150.746V30.4727C150.746 30.9961 150.812 31.3242 150.945 31.457C151.078 31.582 151.484 31.6445 152.164 31.6445C152.266 31.6445 152.371 31.6445 152.48 31.6445C152.598 31.6367 152.711 31.6289 152.82 31.6211ZM165.898 30.25C165.812 31.0078 165.418 31.7773 164.715 32.5586C163.621 33.8008 162.09 34.4219 160.121 34.4219C158.496 34.4219 157.062 33.8984 155.82 32.8516C154.578 31.8047 153.957 30.1016 153.957 27.7422C153.957 25.5312 154.516 23.8359 155.633 22.6562C156.758 21.4766 158.215 20.8867 160.004 20.8867C161.066 20.8867 162.023 21.0859 162.875 21.4844C163.727 21.8828 164.43 22.5117 164.984 23.3711C165.484 24.1289 165.809 25.0078 165.957 26.0078C166.043 26.5938 166.078 27.4375 166.062 28.5391H157.32C157.367 29.8203 157.77 30.7188 158.527 31.2344C158.988 31.5547 159.543 31.7148 160.191 31.7148C160.879 31.7148 161.438 31.5195 161.867 31.1289C162.102 30.918 162.309 30.625 162.488 30.25H165.898ZM162.594 26.3359C162.539 25.4531 162.27 24.7852 161.785 24.332C161.309 23.8711 160.715 23.6406 160.004 23.6406C159.23 23.6406 158.629 23.8828 158.199 24.3672C157.777 24.8516 157.512 25.5078 157.402 26.3359H162.594ZM174.746 24.3086C173.402 24.3086 172.5 24.7461 172.039 25.6211C171.781 26.1133 171.652 26.8711 171.652 27.8945V34H168.289V21.2266H171.477V23.4531C171.992 22.6016 172.441 22.0195 172.824 21.707C173.449 21.1836 174.262 20.9219 175.262 20.9219C175.324 20.9219 175.375 20.9258 175.414 20.9336C175.461 20.9336 175.559 20.9375 175.707 20.9453V24.3672C175.496 24.3438 175.309 24.3281 175.145 24.3203C174.98 24.3125 174.848 24.3086 174.746 24.3086ZM91.25 62L89.2461 52.6953L87.2188 62H83.75L80.1641 49.2266H83.75L85.7422 58.3906L87.582 49.2266H90.9688L92.9141 58.4258L94.9062 49.2266H98.3867L94.6836 62H91.25ZM103.672 49.2266V62H100.285V49.2266H103.672ZM103.672 44.6211V47.7031H100.285V44.6211H103.672ZM112.766 59.6211V62.1172L111.184 62.1758C109.605 62.2305 108.527 61.957 107.949 61.3555C107.574 60.9727 107.387 60.3828 107.387 59.5859V51.7227H105.605V49.3438H107.387V45.7812H110.691V49.3438H112.766V51.7227H110.691V58.4727C110.691 58.9961 110.758 59.3242 110.891 59.457C111.023 59.582 111.43 59.6445 112.109 59.6445C112.211 59.6445 112.316 59.6445 112.426 59.6445C112.543 59.6367 112.656 59.6289 112.766 59.6211ZM126.453 54.5V62H123.043V54.2305C123.043 53.543 122.926 52.9883 122.691 52.5664C122.387 51.9727 121.809 51.6758 120.957 51.6758C120.074 51.6758 119.402 51.9727 118.941 52.5664C118.488 53.1523 118.262 53.9922 118.262 55.0859V62H114.934V44.7852H118.262V50.8906C118.746 50.1484 119.305 49.6328 119.938 49.3438C120.578 49.0469 121.25 48.8984 121.953 48.8984C122.742 48.8984 123.457 49.0352 124.098 49.3086C124.746 49.582 125.277 50 125.691 50.5625C126.043 51.0391 126.258 51.5312 126.336 52.0391C126.414 52.5391 126.453 53.3594 126.453 54.5ZM136.531 44.7266H140.141V58.8945H148.695V62H136.531V44.7266ZM154.367 49.2266V62H150.98V49.2266H154.367ZM154.367 44.6211V47.7031H150.98V44.6211H154.367ZM163.625 51.6992C162.492 51.6992 161.715 52.1797 161.293 53.1406C161.074 53.6484 160.965 54.2969 160.965 55.0859V62H157.637V49.25H160.859V51.1133C161.289 50.457 161.695 49.9844 162.078 49.6953C162.766 49.1797 163.637 48.9219 164.691 48.9219C166.012 48.9219 167.09 49.2695 167.926 49.9648C168.77 50.6523 169.191 51.7969 169.191 53.3984V62H165.77V54.2305C165.77 53.5586 165.68 53.043 165.5 52.6836C165.172 52.0273 164.547 51.6992 163.625 51.6992ZM183.219 58.25C183.133 59.0078 182.738 59.7773 182.035 60.5586C180.941 61.8008 179.41 62.4219 177.441 62.4219C175.816 62.4219 174.383 61.8984 173.141 60.8516C171.898 59.8047 171.277 58.1016 171.277 55.7422C171.277 53.5312 171.836 51.8359 172.953 50.6562C174.078 49.4766 175.535 48.8867 177.324 48.8867C178.387 48.8867 179.344 49.0859 180.195 49.4844C181.047 49.8828 181.75 50.5117 182.305 51.3711C182.805 52.1289 183.129 53.0078 183.277 54.0078C183.363 54.5938 183.398 55.4375 183.383 56.5391H174.641C174.688 57.8203 175.09 58.7188 175.848 59.2344C176.309 59.5547 176.863 59.7148 177.512 59.7148C178.199 59.7148 178.758 59.5195 179.188 59.1289C179.422 58.918 179.629 58.625 179.809 58.25H183.219ZM179.914 54.3359C179.859 53.4531 179.59 52.7852 179.105 52.332C178.629 51.8711 178.035 51.6406 177.324 51.6406C176.551 51.6406 175.949 51.8828 175.52 52.3672C175.098 52.8516 174.832 53.5078 174.723 54.3359H179.914Z" fill="white"/>
<path d="M66.6651 36.23C66.6651 24.295 54.7001 14.585 39.9926 14.585C25.2851 14.585 13.3201 24.295 13.3201 36.23C13.3201 46.93 22.8201 55.8925 35.6251 57.585C36.4951 57.7725 37.6776 58.1575 37.9751 58.9C38.2451 59.575 38.1526 60.6325 38.0626 61.3125C38.0626 61.3125 37.7501 63.195 37.6826 63.595C37.5651 64.27 37.1451 66.2325 39.9926 65.035C42.8401 63.8375 55.3526 55.99 60.9476 49.5475C64.8126 45.31 66.6651 41 66.6651 36.23Z" fill="white"/>
<path d="M57.79 43.1224H50.29C50.1574 43.1224 50.0303 43.0697 49.9365 42.9759C49.8427 42.8821 49.79 42.755 49.79 42.6224V30.9849C49.79 30.8523 49.8427 30.7251 49.9365 30.6313C50.0303 30.5375 50.1574 30.4849 50.29 30.4849H57.79C57.9226 30.4849 58.0498 30.5375 58.1436 30.6313C58.2374 30.7251 58.29 30.8523 58.29 30.9849V32.8774C58.29 33.01 58.2374 33.1371 58.1436 33.2309C58.0498 33.3247 57.9226 33.3774 57.79 33.3774H52.6975V35.3399H57.79C57.9226 35.3399 58.0498 35.3925 58.1436 35.4863C58.2374 35.5801 58.29 35.7073 58.29 35.8399V37.7499C58.29 37.8825 58.2374 38.0096 58.1436 38.1034C58.0498 38.1972 57.9226 38.2499 57.79 38.2499H52.6975V40.2149H57.79C57.9226 40.2149 58.0498 40.2675 58.1436 40.3613C58.2374 40.4551 58.29 40.5823 58.29 40.7149V42.6049C58.2924 42.672 58.2812 42.7389 58.2571 42.8016C58.233 42.8643 58.1966 42.9215 58.1499 42.9698C58.1033 43.0181 58.0473 43.0565 57.9855 43.0827C57.9237 43.1089 57.8572 43.1224 57.79 43.1224Z" fill="#06C755"/>
<path d="M30.0726 43.1224C30.2052 43.1224 30.3324 43.0697 30.4261 42.976C30.5199 42.8822 30.5726 42.755 30.5726 42.6224V40.7324C30.5726 40.5998 30.5199 40.4726 30.4261 40.3789C30.3324 40.2851 30.2052 40.2324 30.0726 40.2324H24.9801V30.9824C24.9801 30.8498 24.9274 30.7226 24.8336 30.6289C24.7399 30.5351 24.6127 30.4824 24.4801 30.4824H22.5801C22.4475 30.4824 22.3203 30.5351 22.2265 30.6289C22.1328 30.7226 22.0801 30.8498 22.0801 30.9824V42.6149C22.0801 42.7475 22.1328 42.8747 22.2265 42.9685C22.3203 43.0622 22.4475 43.1149 22.5801 43.1149H30.0801L30.0726 43.1224Z" fill="#06C755"/>
<path d="M34.5826 30.4624H32.6926C32.411 30.4624 32.1826 30.6907 32.1826 30.9724V42.6124C32.1826 42.8941 32.411 43.1224 32.6926 43.1224H34.5826C34.8643 43.1224 35.0926 42.8941 35.0926 42.6124V30.9724C35.0926 30.6907 34.8643 30.4624 34.5826 30.4624Z" fill="#06C755"/>
<path d="M47.4601 30.4624H45.5701C45.4375 30.4624 45.3103 30.5151 45.2166 30.6088C45.1228 30.7026 45.0701 30.8298 45.0701 30.9624V37.8774L39.7451 30.6849C39.733 30.6659 39.7187 30.6482 39.7026 30.6324L39.6726 30.6024L39.6451 30.5799H39.6301L39.6026 30.5599H39.5876L39.5601 30.5449H39.5426H39.5151H39.4976H39.4676H39.4476H39.4176H39.3976H39.3701H37.4426C37.31 30.5449 37.1828 30.5976 37.0891 30.6913C36.9953 30.7851 36.9426 30.9123 36.9426 31.0449V42.6849C36.9426 42.8175 36.9953 42.9447 37.0891 43.0385C37.1828 43.1322 37.31 43.1849 37.4426 43.1849H39.3351C39.4677 43.1849 39.5949 43.1322 39.6887 43.0385C39.7824 42.9447 39.8351 42.8175 39.8351 42.6849V35.7024L45.1676 42.9024C45.2026 42.9534 45.2466 42.9975 45.2976 43.0324L45.3276 43.0524H45.3426L45.3676 43.0649H45.3926H45.4101H45.4451C45.4893 43.0758 45.5346 43.0817 45.5801 43.0824H47.4601C47.5927 43.0824 47.7199 43.0297 47.8137 42.936C47.9074 42.8422 47.9601 42.715 47.9601 42.5824V30.9724C47.9615 30.9059 47.9495 30.8398 47.925 30.778C47.9004 30.7162 47.8638 30.6599 47.8173 30.6124C47.7707 30.5649 47.7151 30.5271 47.6538 30.5014C47.5925 30.4756 47.5266 30.4624 47.4601 30.4624Z" fill="#06C755"/>
</svg>
