<svg width="241" height="80" viewBox="0 0 241 80" fill="none" xmlns="http://www.w3.org/2000/svg">
<rect width="241" height="80" rx="16" fill="url(#paint0_linear_1469_605)"/>
<path d="M89.1641 27.2266H85.4375V34H81.9102V16.7266H90.3828C91.5938 16.75 92.5234 16.8984 93.1719 17.1719C93.8281 17.4453 94.3828 17.8477 94.8359 18.3789C95.2109 18.8164 95.5078 19.3008 95.7266 19.832C95.9453 20.3633 96.0547 20.9688 96.0547 21.6484C96.0547 22.4688 95.8477 23.2773 95.4336 24.0742C95.0195 24.8633 94.3359 25.4219 93.3828 25.75C94.1797 26.0703 94.7422 26.5273 95.0703 27.1211C95.4062 27.707 95.5742 28.6055 95.5742 29.8164V30.9766C95.5742 31.7656 95.6055 32.3008 95.668 32.582C95.7617 33.0273 95.9805 33.3555 96.3242 33.5664V34H92.3516C92.2422 33.6172 92.1641 33.3086 92.1172 33.0742C92.0234 32.5898 91.9727 32.0938 91.9648 31.5859L91.9414 29.9805C91.9258 28.8789 91.7227 28.1445 91.332 27.7773C90.9492 27.4102 90.2266 27.2266 89.1641 27.2266ZM91.3555 24.0859C92.0742 23.7578 92.4336 23.1094 92.4336 22.1406C92.4336 21.0938 92.0859 20.3906 91.3906 20.0312C91 19.8281 90.4141 19.7266 89.6328 19.7266H85.4375V24.3672H89.5273C90.3398 24.3672 90.9492 24.2734 91.3555 24.0859ZM109.836 30.25C109.75 31.0078 109.355 31.7773 108.652 32.5586C107.559 33.8008 106.027 34.4219 104.059 34.4219C102.434 34.4219 101 33.8984 99.7578 32.8516C98.5156 31.8047 97.8945 30.1016 97.8945 27.7422C97.8945 25.5312 98.4531 23.8359 99.5703 22.6562C100.695 21.4766 102.152 20.8867 103.941 20.8867C105.004 20.8867 105.961 21.0859 106.812 21.4844C107.664 21.8828 108.367 22.5117 108.922 23.3711C109.422 24.1289 109.746 25.0078 109.895 26.0078C109.98 26.5938 110.016 27.4375 110 28.5391H101.258C101.305 29.8203 101.707 30.7188 102.465 31.2344C102.926 31.5547 103.48 31.7148 104.129 31.7148C104.816 31.7148 105.375 31.5195 105.805 31.1289C106.039 30.918 106.246 30.625 106.426 30.25H109.836ZM106.531 26.3359C106.477 25.4531 106.207 24.7852 105.723 24.332C105.246 23.8711 104.652 23.6406 103.941 23.6406C103.168 23.6406 102.566 23.8828 102.137 24.3672C101.715 24.8516 101.449 25.5078 101.34 26.3359H106.531ZM115.871 36.2383C116.23 36.543 116.836 36.6953 117.688 36.6953C118.891 36.6953 119.695 36.293 120.102 35.4883C120.367 34.9727 120.5 34.1055 120.5 32.8867V32.0664C120.18 32.6133 119.836 33.0234 119.469 33.2969C118.805 33.8047 117.941 34.0586 116.879 34.0586C115.238 34.0586 113.926 33.4844 112.941 32.3359C111.965 31.1797 111.477 29.6172 111.477 27.6484C111.477 25.75 111.949 24.1562 112.895 22.8672C113.84 21.5703 115.18 20.9219 116.914 20.9219C117.555 20.9219 118.113 21.0195 118.59 21.2148C119.402 21.5508 120.059 22.168 120.559 23.0664V21.2266H123.805V33.3438C123.805 34.9922 123.527 36.2344 122.973 37.0703C122.02 38.5078 120.191 39.2266 117.488 39.2266C115.855 39.2266 114.523 38.9062 113.492 38.2656C112.461 37.625 111.891 36.668 111.781 35.3945H115.414C115.508 35.7852 115.66 36.0664 115.871 36.2383ZM115.309 29.6406C115.762 30.7188 116.574 31.2578 117.746 31.2578C118.527 31.2578 119.188 30.9648 119.727 30.3789C120.266 29.7852 120.535 28.8438 120.535 27.5547C120.535 26.3438 120.277 25.4219 119.762 24.7891C119.254 24.1562 118.57 23.8398 117.711 23.8398C116.539 23.8398 115.73 24.3906 115.285 25.4922C115.051 26.0781 114.934 26.8008 114.934 27.6602C114.934 28.4023 115.059 29.0625 115.309 29.6406ZM130.367 21.2266V34H126.98V21.2266H130.367ZM130.367 16.6211V19.7031H126.98V16.6211H130.367ZM142.414 21.8125C143.414 22.4531 143.988 23.5547 144.137 25.1172H140.797C140.75 24.6875 140.629 24.3477 140.434 24.0977C140.066 23.6445 139.441 23.418 138.559 23.418C137.832 23.418 137.312 23.5312 137 23.7578C136.695 23.9844 136.543 24.25 136.543 24.5547C136.543 24.9375 136.707 25.2148 137.035 25.3867C137.363 25.5664 138.523 25.875 140.516 26.3125C141.844 26.625 142.84 27.0977 143.504 27.7305C144.16 28.3711 144.488 29.1719 144.488 30.1328C144.488 31.3984 144.016 32.4336 143.07 33.2383C142.133 34.0352 140.68 34.4336 138.711 34.4336C136.703 34.4336 135.219 34.0117 134.258 33.168C133.305 32.3164 132.828 31.2344 132.828 29.9219H136.215C136.285 30.5156 136.438 30.9375 136.672 31.1875C137.086 31.6328 137.852 31.8555 138.969 31.8555C139.625 31.8555 140.145 31.7578 140.527 31.5625C140.918 31.3672 141.113 31.0742 141.113 30.6836C141.113 30.3086 140.957 30.0234 140.645 29.8281C140.332 29.6328 139.172 29.2969 137.164 28.8203C135.719 28.4609 134.699 28.0117 134.105 27.4727C133.512 26.9414 133.215 26.1758 133.215 25.1758C133.215 23.9961 133.676 22.9844 134.598 22.1406C135.527 21.2891 136.832 20.8633 138.512 20.8633C140.105 20.8633 141.406 21.1797 142.414 21.8125ZM152.82 31.6211V34.1172L151.238 34.1758C149.66 34.2305 148.582 33.957 148.004 33.3555C147.629 32.9727 147.441 32.3828 147.441 31.5859V23.7227H145.66V21.3438H147.441V17.7812H150.746V21.3438H152.82V23.7227H150.746V30.4727C150.746 30.9961 150.812 31.3242 150.945 31.457C151.078 31.582 151.484 31.6445 152.164 31.6445C152.266 31.6445 152.371 31.6445 152.48 31.6445C152.598 31.6367 152.711 31.6289 152.82 31.6211ZM165.898 30.25C165.812 31.0078 165.418 31.7773 164.715 32.5586C163.621 33.8008 162.09 34.4219 160.121 34.4219C158.496 34.4219 157.062 33.8984 155.82 32.8516C154.578 31.8047 153.957 30.1016 153.957 27.7422C153.957 25.5312 154.516 23.8359 155.633 22.6562C156.758 21.4766 158.215 20.8867 160.004 20.8867C161.066 20.8867 162.023 21.0859 162.875 21.4844C163.727 21.8828 164.43 22.5117 164.984 23.3711C165.484 24.1289 165.809 25.0078 165.957 26.0078C166.043 26.5938 166.078 27.4375 166.062 28.5391H157.32C157.367 29.8203 157.77 30.7188 158.527 31.2344C158.988 31.5547 159.543 31.7148 160.191 31.7148C160.879 31.7148 161.438 31.5195 161.867 31.1289C162.102 30.918 162.309 30.625 162.488 30.25H165.898ZM162.594 26.3359C162.539 25.4531 162.27 24.7852 161.785 24.332C161.309 23.8711 160.715 23.6406 160.004 23.6406C159.23 23.6406 158.629 23.8828 158.199 24.3672C157.777 24.8516 157.512 25.5078 157.402 26.3359H162.594ZM174.746 24.3086C173.402 24.3086 172.5 24.7461 172.039 25.6211C171.781 26.1133 171.652 26.8711 171.652 27.8945V34H168.289V21.2266H171.477V23.4531C171.992 22.6016 172.441 22.0195 172.824 21.707C173.449 21.1836 174.262 20.9219 175.262 20.9219C175.324 20.9219 175.375 20.9258 175.414 20.9336C175.461 20.9336 175.559 20.9375 175.707 20.9453V24.3672C175.496 24.3438 175.309 24.3281 175.145 24.3203C174.98 24.3125 174.848 24.3086 174.746 24.3086ZM194.047 34L192.043 24.6953L190.016 34H186.547L182.961 21.2266H186.547L188.539 30.3906L190.379 21.2266H193.766L195.711 30.4258L197.703 21.2266H201.184L197.48 34H194.047ZM206.469 21.2266V34H203.082V21.2266H206.469ZM206.469 16.6211V19.7031H203.082V16.6211H206.469ZM215.562 31.6211V34.1172L213.98 34.1758C212.402 34.2305 211.324 33.957 210.746 33.3555C210.371 32.9727 210.184 32.3828 210.184 31.5859V23.7227H208.402V21.3438H210.184V17.7812H213.488V21.3438H215.562V23.7227H213.488V30.4727C213.488 30.9961 213.555 31.3242 213.688 31.457C213.82 31.582 214.227 31.6445 214.906 31.6445C215.008 31.6445 215.113 31.6445 215.223 31.6445C215.34 31.6367 215.453 31.6289 215.562 31.6211ZM229.25 26.5V34H225.84V26.2305C225.84 25.543 225.723 24.9883 225.488 24.5664C225.184 23.9727 224.605 23.6758 223.754 23.6758C222.871 23.6758 222.199 23.9727 221.738 24.5664C221.285 25.1523 221.059 25.9922 221.059 27.0859V34H217.73V16.7852H221.059V22.8906C221.543 22.1484 222.102 21.6328 222.734 21.3438C223.375 21.0469 224.047 20.8984 224.75 20.8984C225.539 20.8984 226.254 21.0352 226.895 21.3086C227.543 21.582 228.074 22 228.488 22.5625C228.84 23.0391 229.055 23.5312 229.133 24.0391C229.211 24.5391 229.25 25.3594 229.25 26.5ZM98.6328 44.7266H102.301L97.4375 62H93.9922L91.9062 51.8984L91.2969 48.5586L90.6875 51.8984L88.6016 62H85.25L80.3516 44.7266H84.1836L86.4688 54.6172L86.9609 57.3711L87.4648 54.6758L89.4102 44.7266H93.2188L95.2695 54.6172L95.7969 57.3711L96.3242 54.7227L98.6328 44.7266ZM115.766 54.5V62H112.355V54.2305C112.355 53.543 112.238 52.9883 112.004 52.5664C111.699 51.9727 111.121 51.6758 110.27 51.6758C109.387 51.6758 108.715 51.9727 108.254 52.5664C107.801 53.1523 107.574 53.9922 107.574 55.0859V62H104.246V44.7852H107.574V50.8906C108.059 50.1484 108.617 49.6328 109.25 49.3438C109.891 49.0469 110.562 48.8984 111.266 48.8984C112.055 48.8984 112.77 49.0352 113.41 49.3086C114.059 49.582 114.59 50 115.004 50.5625C115.355 51.0391 115.57 51.5312 115.648 52.0391C115.727 52.5391 115.766 53.3594 115.766 54.5ZM119.375 50.6094C120.258 49.4844 121.773 48.9219 123.922 48.9219C125.32 48.9219 126.562 49.1992 127.648 49.7539C128.734 50.3086 129.277 51.3555 129.277 52.8945V58.7539C129.277 59.1602 129.285 59.6523 129.301 60.2305C129.324 60.668 129.391 60.9648 129.5 61.1211C129.609 61.2773 129.773 61.4062 129.992 61.5078V62H126.359C126.258 61.7422 126.188 61.5 126.148 61.2734C126.109 61.0469 126.078 60.7891 126.055 60.5C125.594 61 125.062 61.4258 124.461 61.7773C123.742 62.1914 122.93 62.3984 122.023 62.3984C120.867 62.3984 119.91 62.0703 119.152 61.4141C118.402 60.75 118.027 59.8125 118.027 58.6016C118.027 57.0312 118.633 55.8945 119.844 55.1914C120.508 54.8086 121.484 54.5352 122.773 54.3711L123.91 54.2305C124.527 54.1523 124.969 54.0547 125.234 53.9375C125.711 53.7344 125.949 53.418 125.949 52.9883C125.949 52.4648 125.766 52.1055 125.398 51.9102C125.039 51.707 124.508 51.6055 123.805 51.6055C123.016 51.6055 122.457 51.8008 122.129 52.1914C121.895 52.4805 121.738 52.8711 121.66 53.3633H118.438C118.508 52.2461 118.82 51.3281 119.375 50.6094ZM121.859 59.5859C122.172 59.8438 122.555 59.9727 123.008 59.9727C123.727 59.9727 124.387 59.7617 124.988 59.3398C125.598 58.918 125.914 58.1484 125.938 57.0312V55.7891C125.727 55.9219 125.512 56.0312 125.293 56.1172C125.082 56.1953 124.789 56.2695 124.414 56.3398L123.664 56.4805C122.961 56.6055 122.457 56.7578 122.152 56.9375C121.637 57.2422 121.379 57.7148 121.379 58.3555C121.379 58.9258 121.539 59.3359 121.859 59.5859ZM138.102 59.6211V62.1172L136.52 62.1758C134.941 62.2305 133.863 61.957 133.285 61.3555C132.91 60.9727 132.723 60.3828 132.723 59.5859V51.7227H130.941V49.3438H132.723V45.7812H136.027V49.3438H138.102V51.7227H136.027V58.4727C136.027 58.9961 136.094 59.3242 136.227 59.457C136.359 59.582 136.766 59.6445 137.445 59.6445C137.547 59.6445 137.652 59.6445 137.762 59.6445C137.879 59.6367 137.992 59.6289 138.102 59.6211ZM149.047 49.8125C150.047 50.4531 150.621 51.5547 150.77 53.1172H147.43C147.383 52.6875 147.262 52.3477 147.066 52.0977C146.699 51.6445 146.074 51.418 145.191 51.418C144.465 51.418 143.945 51.5312 143.633 51.7578C143.328 51.9844 143.176 52.25 143.176 52.5547C143.176 52.9375 143.34 53.2148 143.668 53.3867C143.996 53.5664 145.156 53.875 147.148 54.3125C148.477 54.625 149.473 55.0977 150.137 55.7305C150.793 56.3711 151.121 57.1719 151.121 58.1328C151.121 59.3984 150.648 60.4336 149.703 61.2383C148.766 62.0352 147.312 62.4336 145.344 62.4336C143.336 62.4336 141.852 62.0117 140.891 61.168C139.938 60.3164 139.461 59.2344 139.461 57.9219H142.848C142.918 58.5156 143.07 58.9375 143.305 59.1875C143.719 59.6328 144.484 59.8555 145.602 59.8555C146.258 59.8555 146.777 59.7578 147.16 59.5625C147.551 59.3672 147.746 59.0742 147.746 58.6836C147.746 58.3086 147.59 58.0234 147.277 57.8281C146.965 57.6328 145.805 57.2969 143.797 56.8203C142.352 56.4609 141.332 56.0117 140.738 55.4727C140.145 54.9414 139.848 54.1758 139.848 53.1758C139.848 51.9961 140.309 50.9844 141.23 50.1406C142.16 49.2891 143.465 48.8633 145.145 48.8633C146.738 48.8633 148.039 49.1797 149.047 49.8125ZM163.988 58.4492H157.625L156.43 62H152.656L158.82 44.7266H162.898L169.016 62H165.102L163.988 58.4492ZM162.98 55.4727L160.824 48.6758L158.598 55.4727H162.98ZM181.648 50.5977C182.68 51.6992 183.195 53.3164 183.195 55.4492C183.195 57.6992 182.688 59.4141 181.672 60.5938C180.664 61.7734 179.363 62.3633 177.77 62.3633C176.754 62.3633 175.91 62.1094 175.238 61.6016C174.871 61.3203 174.512 60.9102 174.16 60.3711V67.0273H170.855V49.2266H174.055V51.1133C174.414 50.5586 174.797 50.1211 175.203 49.8008C175.945 49.2305 176.828 48.9453 177.852 48.9453C179.344 48.9453 180.609 49.4961 181.648 50.5977ZM179.75 55.6133C179.75 54.6289 179.523 53.7578 179.07 53C178.625 52.2422 177.898 51.8633 176.891 51.8633C175.68 51.8633 174.848 52.4375 174.395 53.5859C174.16 54.1953 174.043 54.9688 174.043 55.9062C174.043 57.3906 174.438 58.4336 175.227 59.0352C175.695 59.3867 176.25 59.5625 176.891 59.5625C177.82 59.5625 178.527 59.2031 179.012 58.4844C179.504 57.7656 179.75 56.8086 179.75 55.6133ZM196.32 50.5977C197.352 51.6992 197.867 53.3164 197.867 55.4492C197.867 57.6992 197.359 59.4141 196.344 60.5938C195.336 61.7734 194.035 62.3633 192.441 62.3633C191.426 62.3633 190.582 62.1094 189.91 61.6016C189.543 61.3203 189.184 60.9102 188.832 60.3711V67.0273H185.527V49.2266H188.727V51.1133C189.086 50.5586 189.469 50.1211 189.875 49.8008C190.617 49.2305 191.5 48.9453 192.523 48.9453C194.016 48.9453 195.281 49.4961 196.32 50.5977ZM194.422 55.6133C194.422 54.6289 194.195 53.7578 193.742 53C193.297 52.2422 192.57 51.8633 191.562 51.8633C190.352 51.8633 189.52 52.4375 189.066 53.5859C188.832 54.1953 188.715 54.9688 188.715 55.9062C188.715 57.3906 189.109 58.4336 189.898 59.0352C190.367 59.3867 190.922 59.5625 191.562 59.5625C192.492 59.5625 193.199 59.2031 193.684 58.4844C194.176 57.7656 194.422 56.8086 194.422 55.6133Z" fill="white"/>
<path d="M53.9729 45.1914C53.2559 44.8327 49.7323 43.0996 49.0755 42.8605C48.4185 42.6212 47.9408 42.5019 47.4627 43.2189C46.985 43.9363 45.6119 45.5501 45.1932 46.0284C44.7755 46.5064 44.3575 46.5661 43.6408 46.2078C42.924 45.8491 40.6149 45.0923 37.8772 42.6517C35.7467 40.752 34.3083 38.4055 33.8903 37.6881C33.4723 36.9707 33.846 36.5832 34.2047 36.2258C34.527 35.9051 34.9211 35.3891 35.2798 34.9707C35.6378 34.5524 35.7575 34.2533 35.9965 33.7753C36.2352 33.2973 36.1159 32.8786 35.9365 32.5202C35.7575 32.1615 34.3241 28.635 33.7267 27.2005C33.145 25.8035 32.5542 25.9923 32.1142 25.9704C31.6965 25.9497 31.2185 25.9451 30.7408 25.9451C30.2631 25.9451 29.4864 26.1248 28.8296 26.8419C28.1726 27.5592 26.3211 29.2927 26.3211 32.8189C26.3211 36.3455 28.8893 39.7524 29.2477 40.2304C29.606 40.7087 34.3014 47.9455 41.4906 51.0487C43.2004 51.7871 44.5359 52.2281 45.5765 52.5583C47.2936 53.1035 48.8555 53.0265 50.0906 52.8422C51.4677 52.6363 54.3309 51.1087 54.9283 49.435C55.5254 47.7615 55.5254 46.3271 55.3464 46.0284C55.167 45.7297 54.6893 45.5504 53.9729 45.1914ZM40.8959 63.0409H40.8863C36.6083 63.0389 32.4123 61.8904 28.7523 59.7189L27.8814 59.2022L18.8585 61.5684L21.267 52.774L20.6998 51.8724C18.3136 48.0779 17.0532 43.692 17.0552 39.1887C17.0601 26.0484 27.7549 15.3576 40.905 15.3576C47.2726 15.3602 53.2585 17.8425 57.7598 22.3471C62.2608 26.8517 64.7385 32.8399 64.7359 39.2078C64.7306 52.3494 54.0359 63.0409 40.8959 63.0409ZM61.1857 18.9242C55.7703 13.5042 48.5686 10.5179 40.8955 10.5146C25.0857 10.5146 12.2188 23.3769 12.2123 39.1868C12.2103 44.2409 13.5309 49.1737 16.0411 53.5219L11.9719 68.3805L27.1772 64.3933C31.3667 66.6776 36.0834 67.8815 40.8841 67.8835H40.8959C40.8968 67.8835 40.8949 67.8835 40.8959 67.8835C56.7041 67.8835 69.5726 55.0196 69.5788 39.2097C69.5818 31.5481 66.6011 24.3438 61.1857 18.9242Z" fill="white"/>
<defs>
<linearGradient id="paint0_linear_1469_605" x1="120.5" y1="0" x2="120.5" y2="80" gradientUnits="userSpaceOnUse">
<stop stop-color="#61FD7D"/>
<stop offset="1" stop-color="#2CB927"/>
</linearGradient>
</defs>
</svg>
