<svg width="150" height="150" viewBox="0 0 150 150" fill="none" xmlns="http://www.w3.org/2000/svg">
<path d="M23.4375 133.594V138.281C23.4375 140.146 24.1783 141.934 25.4969 143.253C26.8155 144.572 28.6039 145.312 30.4688 145.312H119.531V140.625H37.5V131.25H119.531V126.562H30.4688C28.6039 126.562 26.8155 127.303 25.4969 128.622C24.1783 129.941 23.4375 131.729 23.4375 133.594ZM32.8125 140.625H30.4688C29.8471 140.625 29.251 140.378 28.8115 139.939C28.3719 139.499 28.125 138.903 28.125 138.281V133.594C28.125 132.972 28.3719 132.376 28.8115 131.936C29.251 131.497 29.8471 131.25 30.4688 131.25H32.8125V140.625Z" fill="#38A5DD"/>
<path d="M117.188 133.594H42.1875V138.281H117.188V133.594Z" fill="#38A5DD"/>
<path d="M121.875 105.469H32.8125V110.156H114.844V119.531H32.8125V124.219H121.875C123.74 124.219 125.528 123.478 126.847 122.159C128.165 120.841 128.906 119.052 128.906 117.188V112.5C128.906 110.635 128.165 108.847 126.847 107.528C125.528 106.21 123.74 105.469 121.875 105.469ZM124.219 117.188C124.219 117.809 123.972 118.405 123.532 118.845C123.093 119.284 122.497 119.531 121.875 119.531H119.531V110.156H121.875C122.497 110.156 123.093 110.403 123.532 110.843C123.972 111.282 124.219 111.878 124.219 112.5V117.188Z" fill="#38A5DD"/>
<path d="M110.156 112.5H35.1562V117.188H110.156V112.5Z" fill="#38A5DD"/>
<path d="M37.5 37.5H44.5312V49.2188C44.535 52.3256 45.7708 55.3042 47.9677 57.501C50.1646 59.6979 53.1431 60.9338 56.25 60.9375H67.9688V79.6875H56.25C55.6284 79.6875 55.0323 79.9344 54.5927 80.374C54.1532 80.8135 53.9062 81.4096 53.9062 82.0312V89.0625H46.875C46.2534 89.0625 45.6573 89.3094 45.2177 89.749C44.7782 90.1885 44.5312 90.7846 44.5312 91.4062V100.781C44.5312 101.403 44.7782 101.999 45.2177 102.439C45.6573 102.878 46.2534 103.125 46.875 103.125H103.125C103.747 103.125 104.343 102.878 104.782 102.439C105.222 101.999 105.469 101.403 105.469 100.781V91.4062C105.469 90.7846 105.222 90.1885 104.782 89.749C104.343 89.3094 103.747 89.0625 103.125 89.0625H96.0938V82.0312C96.0938 81.4096 95.8468 80.8135 95.4073 80.374C94.9677 79.9344 94.3716 79.6875 93.75 79.6875H82.0312V60.9375H93.75C96.8569 60.9338 99.8354 59.6979 102.032 57.501C104.229 55.3042 105.465 52.3256 105.469 49.2188V37.5H112.5C114.365 37.5 116.153 36.7592 117.472 35.4406C118.79 34.122 119.531 32.3336 119.531 30.4688V11.7188C119.531 9.85395 118.79 8.06552 117.472 6.74691C116.153 5.42829 114.365 4.6875 112.5 4.6875H37.5C35.6352 4.6875 33.8468 5.42829 32.5282 6.74691C31.2095 8.06552 30.4688 9.85395 30.4688 11.7188V30.4688C30.4688 32.3336 31.2095 34.122 32.5282 35.4406C33.8468 36.7592 35.6352 37.5 37.5 37.5ZM100.781 98.4375H49.2188V93.75H100.781V98.4375ZM91.4062 89.0625H58.5938V84.375H91.4062V89.0625ZM77.3438 79.6875H72.6562V60.9375H77.3438V79.6875ZM114.844 11.7188V30.4688C114.844 31.0904 114.597 31.6865 114.157 32.126C113.718 32.5656 113.122 32.8125 112.5 32.8125H105.469V9.375H112.5C113.122 9.375 113.718 9.62193 114.157 10.0615C114.597 10.501 114.844 11.0971 114.844 11.7188ZM100.781 49.2188C100.781 51.0836 100.04 52.872 98.7218 54.1906C97.4032 55.5092 95.6148 56.25 93.75 56.25H56.25C54.3852 56.25 52.5968 55.5092 51.2782 54.1906C49.9595 52.872 49.2188 51.0836 49.2188 49.2188V9.375H100.781V49.2188ZM35.1562 11.7188C35.1562 11.0971 35.4032 10.501 35.8427 10.0615C36.2823 9.62193 36.8784 9.375 37.5 9.375H44.5312V32.8125H37.5C36.8784 32.8125 36.2823 32.5656 35.8427 32.126C35.4032 31.6865 35.1562 31.0904 35.1562 30.4688V11.7188Z" fill="#38A5DD"/>
</svg>
