<svg width="320" height="320" viewBox="0 0 244 244" xmlns="http://www.w3.org/2000/svg" xml:space="preserve" style="fill-rule:evenodd;clip-rule:evenodd;stroke-linejoin:round;stroke-miterlimit:2"><path d="m.746-.5.027.001c.022 0 .051.002.064.005a.201.201 0 0 1 .104.054.201.201 0 0 1 .053.103A.482.482 0 0 1 1-.273v.519L.999.273a.369.369 0 0 1-.005.064.201.201 0 0 1-.054.104.201.201 0 0 1-.103.053A.482.482 0 0 1 .773.5H.254L.227.499A.369.369 0 0 1 .163.494.201.201 0 0 1 .059.44.201.201 0 0 1 .006.337.482.482 0 0 1 0 .273v-.519l.001-.027c0-.022.002-.051.005-.064A.201.201 0 0 1 .06-.441a.201.201 0 0 1 .103-.053A.482.482 0 0 1 .227-.5h.519z" style="fill:url(#a);fill-rule:nonzero" transform="rotate(90 60.991 60.991) scale(243.964)"/><path d="M341.136 438.576c-2.187-1.094-12.934-6.38-14.937-7.109-2.004-.73-3.461-1.094-4.919 1.093-1.457 2.188-5.645 7.11-6.922 8.569-1.274 1.458-2.549 1.64-4.735.547-2.186-1.094-9.229-3.402-17.579-10.846-6.498-5.794-10.885-12.951-12.16-15.139-1.275-2.188-.135-3.37.959-4.46.983-.978 2.185-2.552 3.279-3.828 1.092-1.276 1.457-2.188 2.186-3.646.728-1.458.364-2.735-.183-3.828-.546-1.094-4.918-11.85-6.74-16.225-1.774-4.261-3.576-3.685-4.918-3.752-1.274-.063-2.732-.077-4.189-.077-1.457 0-3.826.548-5.829 2.735-2.004 2.188-7.651 7.475-7.651 18.23 0 10.756 7.833 21.147 8.926 22.605 1.093 1.459 15.414 23.531 37.341 32.996 5.215 2.252 9.288 3.597 12.462 4.604 5.237 1.663 10.001 1.428 13.768.866 4.2-.628 12.933-5.287 14.755-10.392 1.821-5.104 1.821-9.479 1.275-10.39-.547-.911-2.004-1.458-4.189-2.553m-39.885 54.441h-.029c-13.048-.006-25.846-3.509-37.009-10.132l-2.656-1.576-27.52 7.217 7.346-26.823-1.73-2.75c-7.278-11.573-11.122-24.95-11.116-38.685.015-40.078 32.634-72.685 72.742-72.685 19.421.008 37.678 7.579 51.407 21.318 13.728 13.739 21.285 32.003 21.277 51.425-.016 40.082-32.635 72.691-72.712 72.691m61.884-134.556c-16.517-16.531-38.482-25.639-61.885-25.649-48.22 0-87.464 39.23-87.484 87.45-.006 15.415 4.022 30.46 11.678 43.722l-12.411 45.319 46.376-12.161a87.443 87.443 0 0 0 41.806 10.645h.036c.003 0-.003 0 0 0 48.215 0 87.464-39.235 87.483-87.455.009-23.368-9.082-45.341-25.599-61.871" style="fill:#fff;fill-rule:nonzero" transform="translate(-176.519 -300.743)"/><defs><linearGradient id="a" x1="0" y1="0" x2="1" y2="0" gradientUnits="userSpaceOnUse" gradientTransform="matrix(1 0 0 -1 0 0)"><stop offset="0" style="stop-color:#61fd7d;stop-opacity:1"/><stop offset="1" style="stop-color:#2bb826;stop-opacity:1"/></linearGradient></defs></svg>